<?xml version="1.0" encoding="UTF-8" standalone="no"?>
<!-- Created with Inkscape (http://www.inkscape.org/) -->

<svg
   xmlns:dc="http://purl.org/dc/elements/1.1/"
   xmlns:cc="http://creativecommons.org/ns#"
   xmlns:rdf="http://www.w3.org/1999/02/22-rdf-syntax-ns#"
   xmlns:svg="http://www.w3.org/2000/svg"
   xmlns="http://www.w3.org/2000/svg"
   xmlns:sodipodi="http://sodipodi.sourceforge.net/DTD/sodipodi-0.dtd"
   xmlns:inkscape="http://www.inkscape.org/namespaces/inkscape"
   width="210mm"
   height="297mm"
   viewBox="0 0 210 297"
   version="1.1"
   id="svg8"
   inkscape:version="0.92.4 (5da689c313, 2019-01-14)"
   sodipodi:docname="logo-1.svg">
  <defs
     id="defs2">
    <inkscape:path-effect
       effect="skeletal"
       id="path-effect60"
       is_visible="true"
       pattern="M 0,5 C 0,2.24 2.24,0 5,0 7.76,0 10,2.24 10,5 10,7.76 7.76,10 5,10 2.24,10 0,7.76 0,5 Z"
       copytype="single_stretched"
       prop_scale="0.26458333"
       scale_y_rel="false"
       spacing="0"
       normal_offset="0"
       tang_offset="0"
       prop_units="false"
       vertical_pattern="false"
       fuse_tolerance="0" />
    <inkscape:path-effect
       effect="skeletal"
       id="path-effect56"
       is_visible="true"
       pattern="M 0,5 C 0,2.24 2.24,0 5,0 7.76,0 10,2.24 10,5 10,7.76 7.76,10 5,10 2.24,10 0,7.76 0,5 Z"
       copytype="single_stretched"
       prop_scale="0.26458333"
       scale_y_rel="false"
       spacing="0"
       normal_offset="0"
       tang_offset="0"
       prop_units="false"
       vertical_pattern="false"
       fuse_tolerance="0" />
    <inkscape:path-effect
       effect="skeletal"
       id="path-effect52"
       is_visible="true"
       pattern="M 0,5 C 0,2.24 2.24,0 5,0 7.76,0 10,2.24 10,5 10,7.76 7.76,10 5,10 2.24,10 0,7.76 0,5 Z"
       copytype="single_stretched"
       prop_scale="0.26458333"
       scale_y_rel="false"
       spacing="0"
       normal_offset="0"
       tang_offset="0"
       prop_units="false"
       vertical_pattern="false"
       fuse_tolerance="0" />
    <inkscape:path-effect
       effect="skeletal"
       id="path-effect48"
       is_visible="true"
       pattern="M 0,5 C 0,2.24 2.24,0 5,0 7.76,0 10,2.24 10,5 10,7.76 7.76,10 5,10 2.24,10 0,7.76 0,5 Z"
       copytype="single_stretched"
       prop_scale="0.26458333"
       scale_y_rel="false"
       spacing="0"
       normal_offset="0"
       tang_offset="0"
       prop_units="false"
       vertical_pattern="false"
       fuse_tolerance="0" />
    <inkscape:path-effect
       effect="skeletal"
       id="path-effect44"
       is_visible="true"
       pattern="M 0,5 C 0,2.24 2.24,0 5,0 7.76,0 10,2.24 10,5 10,7.76 7.76,10 5,10 2.24,10 0,7.76 0,5 Z"
       copytype="single_stretched"
       prop_scale="0.26458333"
       scale_y_rel="false"
       spacing="0"
       normal_offset="0"
       tang_offset="0"
       prop_units="false"
       vertical_pattern="false"
       fuse_tolerance="0" />
    <inkscape:path-effect
       effect="skeletal"
       id="path-effect40"
       is_visible="true"
       pattern="M 0,5 C 0,2.24 2.24,0 5,0 7.76,0 10,2.24 10,5 10,7.76 7.76,10 5,10 2.24,10 0,7.76 0,5 Z"
       copytype="single_stretched"
       prop_scale="0.26458333"
       scale_y_rel="false"
       spacing="0"
       normal_offset="0"
       tang_offset="0"
       prop_units="false"
       vertical_pattern="false"
       fuse_tolerance="0" />
    <inkscape:path-effect
       effect="skeletal"
       id="path-effect36"
       is_visible="true"
       pattern="M 0,5 C 0,2.24 2.24,0 5,0 7.76,0 10,2.24 10,5 10,7.76 7.76,10 5,10 2.24,10 0,7.76 0,5 Z"
       copytype="single_stretched"
       prop_scale="0.26458333"
       scale_y_rel="false"
       spacing="0"
       normal_offset="0"
       tang_offset="0"
       prop_units="false"
       vertical_pattern="false"
       fuse_tolerance="0" />
    <inkscape:path-effect
       effect="skeletal"
       id="path-effect20"
       is_visible="true"
       pattern="M 0,5 C 0,2.24 2.24,0 5,0 7.76,0 10,2.24 10,5 10,7.76 7.76,10 5,10 2.24,10 0,7.76 0,5 Z"
       copytype="single_stretched"
       prop_scale="0.26458333"
       scale_y_rel="false"
       spacing="0"
       normal_offset="0"
       tang_offset="0"
       prop_units="false"
       vertical_pattern="false"
       fuse_tolerance="0" />
    <inkscape:path-effect
       effect="skeletal"
       id="path-effect16"
       is_visible="true"
       pattern="M 0,5 C 0,2.24 2.24,0 5,0 7.76,0 10,2.24 10,5 10,7.76 7.76,10 5,10 2.24,10 0,7.76 0,5 Z"
       copytype="single_stretched"
       prop_scale="0.26458333"
       scale_y_rel="false"
       spacing="0"
       normal_offset="0"
       tang_offset="0"
       prop_units="false"
       vertical_pattern="false"
       fuse_tolerance="0" />
    <inkscape:path-effect
       effect="skeletal"
       id="path-effect12"
       is_visible="true"
       pattern="M 0,5 C 0,2.24 2.24,0 5,0 7.76,0 10,2.24 10,5 10,7.76 7.76,10 5,10 2.24,10 0,7.76 0,5 Z"
       copytype="single_stretched"
       prop_scale="0.26458333"
       scale_y_rel="false"
       spacing="0"
       normal_offset="0"
       tang_offset="0"
       prop_units="false"
       vertical_pattern="false"
       fuse_tolerance="0" />
  </defs>
  <sodipodi:namedview
     id="base"
     pagecolor="#ffffff"
     bordercolor="#666666"
     borderopacity="1.0"
     inkscape:pageopacity="0.0"
     inkscape:pageshadow="2"
     inkscape:zoom="0.34"
     inkscape:cx="100.09039"
     inkscape:cy="671.7398"
     inkscape:document-units="mm"
     inkscape:current-layer="layer1"
     showgrid="false"
     inkscape:window-width="1920"
     inkscape:window-height="1017"
     inkscape:window-x="-8"
     inkscape:window-y="-8"
     inkscape:window-maximized="1" />
  <metadata
     id="metadata5">
    <rdf:RDF>
      <cc:Work
         rdf:about="">
        <dc:format>image/svg+xml</dc:format>
        <dc:type
           rdf:resource="http://purl.org/dc/dcmitype/StillImage" />
        <dc:title></dc:title>
      </cc:Work>
    </rdf:RDF>
  </metadata>
  <g
     inkscape:label="Layer 1"
     inkscape:groupmode="layer"
     id="layer1">
    <path
       style="fill:#000000;stroke:none;stroke-width:0.26458332px;stroke-linecap:butt;stroke-linejoin:miter;stroke-opacity:1"
       d="m 17.386905,88.357143 c -0.03901,-0.07802 0.83554,-0.976454 2.813642,-2.002293 1.15714,-0.602126 2.776265,-1.405008 4.588298,-2.235521 0.702495,-0.322846 1.533941,-0.706939 2.389502,-1.029381 l 0,0 c 0.248965,0.202373 0.580952,0.389005 1.015542,0.604158 0,0 6e-6,3e-6 6e-6,3e-6 l 0,0 c 0,0 2e-6,5e-6 2e-6,5e-6 0.01544,0.03344 0.0318,0.06673 0.04876,0.102694 0,0 2e-6,5e-6 2e-6,5e-6 0.0089,0.01891 0.01917,0.03822 0.02525,0.06276 0.0049,0.01997 0.0038,0.04232 0.0017,0.06278 -0.004,0.0381 -0.01076,0.07381 -0.01714,0.108815 -0.06211,0.340873 -0.104661,0.622768 -0.09552,0.87158 -0.216355,0.140345 -0.429382,0.267643 -0.638978,0.39051 -1e-6,1e-6 -2e-6,1e-6 -2e-6,1e-6 -1.379647,0.81013 -2.758152,1.532389 -4.336023,2.351604 0,0 -3e-6,10e-7 -3e-6,10e-7 -1.482971,0.770218 -3.072009,1.576377 -4.727641,2.38503 -0.458189,0.224011 -0.940468,0.459992 -1.437677,0.685973 0,0 -2e-6,10e-7 -2e-6,10e-7 -0.06199,0.02825 -0.131078,0.0591 -0.207644,0.09142 0,0 -3e-6,10e-7 -3e-6,10e-7 -0.168774,-0.326339 -0.404897,-0.632105 -0.710604,-0.922829 l 0,-10e-7 c -0.0093,-0.03184 -0.01903,-0.06348 -0.02914,-0.09541 m 0.0044,-0.0105 c -0.05136,-0.409918 -0.148101,-0.781563 -0.294808,-1.120448 0.512519,-0.330295 1.003524,-0.606696 1.478982,-0.886731 1.173998,-0.606399 2.356725,-1.203385 3.585515,-1.819173 2.690325,-1.348235 5.495868,-2.733836 8.399982,-4.147382 19.811889,-9.643227 36.226498,-16.747158 36.524538,-16.126241 0.333958,0.695746 -15.572287,8.870559 -35.366596,18.50522 -2.888336,1.405866 -5.728484,2.780051 -8.423763,4.07736 -1.249822,0.601583 -2.411996,1.15951 -3.601505,1.738795 -0.538106,0.228536 -1.026828,0.421657 -1.481452,0.636657 -0.209109,-0.303706 -0.369744,-0.642097 -0.478228,-1.008997 m -0.0044,0.0105 c -0.0032,-0.03268 -0.0061,-0.0661 -0.0087,-0.09979 l 0,-10e-7 c -0.239504,-0.30886 -0.41251,-0.642327 -0.517817,-0.994558 0,0 2e-6,0 2e-6,0 0.04439,-0.01703 0.09515,-0.03817 0.152492,-0.06219 0,0 3e-6,-2e-6 3e-6,-2e-6 0.460986,-0.193779 0.932409,-0.407656 1.39993,-0.618019 1.656493,-0.745618 3.276348,-1.491635 4.776884,-2.187432 0,0 2e-6,-10e-7 2e-6,-10e-7 1.636855,-0.759634 2.975918,-1.371222 4.373943,-2.080649 0,0 2e-6,-1e-6 2e-6,-1e-6 0.208951,-0.106236 0.402813,-0.2054 0.584631,-0.307588 0.225999,0.117282 0.409462,0.276009 0.525277,0.440946 0.01188,0.01692 0.02326,0.03379 0.03091,0.04901 0.0041,0.0082 0.0069,0.01466 0.0034,0.02374 -0.0043,0.01116 -0.01315,0.02789 -0.02107,0.04528 0,0 -2e-6,5e-6 -2e-6,5e-6 -0.01506,0.03304 -0.03096,0.06989 -0.04732,0.107593 0,0 -2e-6,5e-6 -2e-6,5e-6 l 0,0 c 0,0 1e-6,3e-6 1e-6,3e-6 0.116312,0.257773 0.14886,0.5608 0.09883,0.863681 l 0,0 c -0.786577,0.233742 -1.630567,0.547956 -2.358679,0.809474 -2.036788,0.732124 -3.371166,1.224323 -4.783751,1.708017 -2.024946,0.683956 -3.101803,1.285858 -3.233974,1.021518"
       id="path10"
       inkscape:connector-curvature="0"
       inkscape:path-effect="#path-effect12"
       inkscape:original-d="m 17.386905,88.357143 c 1.007936,-0.503971 1.988018,-1.067996 3.023809,-1.511906 31.943985,-13.69028 -53.635459,26.349783 45.357143,-21.166667"
       transform="translate(19.454657,-5.4473043)" />
    <path
       style="fill:#000000;stroke:none;stroke-width:0.26458332px;stroke-linecap:butt;stroke-linejoin:miter;stroke-opacity:1"
       d="m 68.035714,66.434522 c 0.069,-0.03695 0.339969,0.693234 1.238679,0.878902 0.346289,0.08834 0.721244,0.03426 1.229623,-0.09846 0,0 2e-6,0 2e-6,0 0.572414,-0.175959 1.814636,-0.777046 2.982145,-0.421448 0.902793,0.349161 1.585499,1.116192 2.338985,1.449041 -0.177937,0.0388 0.05109,-0.177944 0.695424,-0.04831 1.159017,0.36955 2.060646,1.247232 3.004747,1.418752 0.189443,0.08111 0.68775,-0.178836 1.520009,-0.03241 0.732666,0.196452 1.210265,0.554491 1.661133,0.774341 0.431861,0.201972 1.028259,0.4113 1.603832,0.771887 0.559784,0.444563 0.787154,0.883056 0.922229,0.965072 0,0 2e-6,10e-7 2e-6,10e-7 0.152364,0.298326 0.215484,0.537266 0.279228,0.539778 -0.08244,-0.01221 -0.05507,-0.04942 0.05205,-0.03858 0.202302,-0.09532 0.79773,-0.327104 1.722959,-0.05947 0.713229,0.460179 0.843408,0.901619 0.763694,0.740467 -0.142264,0.01894 -0.03731,-0.07092 0.226248,-0.07914 0.23085,-0.105036 0.681711,-0.15066 1.296252,0.05795 0.238747,-0.02714 0.797288,0.242166 1.25445,1.104019 -0.09977,0.871109 -0.333544,1.269611 -0.520723,1.186509 0,0 2e-6,2.3e-5 2e-6,2.3e-5 0.01752,0.174932 0.09647,-0.05471 0.29714,-0.682998 0,0 2.7e-5,-8.2e-5 2.7e-5,-8.2e-5 -0.327561,-0.606082 -0.410647,-0.816741 -0.34476,-0.587498 0.360911,0.17033 0.841362,0.237516 1.423618,0.383201 0.31064,0.131769 1.075214,-0.249937 2.275184,-0.02932 0.894626,0.219784 1.626674,0.58199 2.275084,0.727082 -0.251249,0.0073 0.03035,-0.132276 0.827801,0.01143 0.775553,0.275473 1.228418,0.67252 1.51811,0.737346 -0.123086,0.08026 0.400782,-0.25053 1.517292,-0.01615 0.78565,0.280324 1.23761,0.677526 1.51763,0.738773 -0.18221,0.02328 -0.0254,-0.07723 0.43975,-0.05921 0,0 10e-6,10e-7 10e-6,10e-7 0.28677,-0.02517 0.91978,-0.174845 1.83545,0.03714 1.02171,0.595434 1.1669,1.098579 0.89475,0.801916 0,0 -1e-5,0 -1e-5,0 -0.39545,-0.0045 -0.26442,-0.157493 0.29361,-0.116482 0,0 1e-5,1e-6 1e-5,1e-6 0.2806,-0.0255 0.9165,-0.174132 1.84562,0.03998 0,0 1e-5,2e-6 1e-5,2e-6 1.12459,0.664092 1.19963,1.195216 0.7591,0.746516 -0.18694,0.07385 0.34082,-0.255267 1.51613,-0.01271 0,0 1e-5,3e-6 1e-5,3e-6 1.14209,0.676724 1.21625,1.207453 0.75891,0.747086 -0.0594,0.01416 0.10034,-0.03485 0.4525,-0.0034 0.43004,0.0038 0.86907,-0.006 1.32306,-0.01753 0.76971,-0.02004 1.57393,-0.06455 2.41609,-0.07097 -0.25656,-0.131579 0.28862,-0.221795 1.55491,0.325095 0.46808,1.02083 0.48918,1.577583 0.25912,1.557053 0.2688,0.219489 0.0244,-0.06127 -0.55013,-1.018034 -0.0174,0.127312 0.44352,-0.109831 1.23493,-0.101679 0,0 1e-5,0 1e-5,0 0.50433,-0.09861 1.33613,-0.258772 2.40436,0.01513 1.1154,0.663615 1.262,1.16742 0.91134,0.812654 0,0 -1e-5,-10e-7 -1e-5,-10e-7 -0.29015,-0.02077 -0.30117,-0.118823 -0.0108,-0.102714 0,0 1e-5,-4e-6 1e-5,-4e-6 0.22553,-0.124855 0.7552,-0.156437 1.52708,0.09404 0.91283,0.619901 1.03129,1.056645 0.7589,0.750059 -0.48692,-0.02104 -0.37563,-0.177807 0.22579,-0.12971 -1.2e-4,10e-7 0.75608,-0.0044 0.75596,-0.0044 1.43286,0.256457 2.88312,0.520546 4.35165,0.792059 -0.46612,2.11601 -1.10583,4.30482 -2.13494,6.3369 -1.08304,1.520408 -2.35031,2.788626 -3.59054,4.030934 -0.61072,0.628287 -1.16903,0.979928 -1.34752,1.323479 -0.0641,0.06235 -0.15218,0.761905 -0.91087,1.709813 -0.9112,0.490106 -1.47028,0.569428 -1.58842,0.35814 0,0 -1e-5,-1.4e-5 -1e-5,-1.4e-5 -0.23477,0.05093 -0.0794,-0.03046 0.50149,-0.116536 0,0 4e-5,-6e-6 4e-5,-6e-6 -0.11862,-0.08866 -0.34199,0.627672 -1.31239,1.396206 0,0 -1e-5,9e-6 -1e-5,9e-6 -0.9346,0.702105 -1.78644,0.987973 -2.12478,1.397634 0.0806,-0.205363 0.12288,-0.0889 -0.0179,0.221087 0,0 0,9e-6 0,9e-6 -0.006,0.325167 -0.27475,0.863607 -0.93292,1.45603 -0.90524,0.37876 -1.52799,0.37846 -1.76118,0.20583 -0.29667,0.0217 -0.31814,-0.0868 0.11127,-0.12169 0.67509,-1.102404 0.95084,-1.453581 0.63704,-1.219915 0,0 -2e-5,1.6e-5 -2e-5,1.6e-5 0.25843,-0.04404 0.22743,0.566974 -0.2974,1.733109 0,0 -3e-5,8e-5 -3e-5,8e-5 -0.95124,0.7636 -1.65902,0.86145 -1.70872,0.92164 0.17794,-0.196 -0.002,0.22578 -0.89556,0.83924 -0.83786,0.21074 -1.28863,0.19235 -1.31354,0.0714 -0.1266,0.15188 0.14375,0.006 0.89874,-0.31569 0.32176,-0.75401 0.46858,-1.02558 0.31693,-0.89907 0,0 -10e-6,1e-5 -10e-6,1e-5 0.12121,0.0246 0.14056,0.47453 -0.0703,1.31498 0,0 -1e-5,5e-5 -1e-5,5e-5 -0.49978,0.76225 -0.92329,1.05842 -1.00048,1.09799 0,0 0,0 0,0 -0.40906,0.41793 -0.89543,1.04216 -1.65084,1.6362 -0.81514,0.5527 -1.42663,0.6722 -1.57048,0.79974 -0.11637,-3e-4 -0.43077,0.81688 -1.65269,1.59588 -1.41398,0.31662 -1.70302,0.0842 -0.75571,5.3e-4 -0.0804,0.007 -0.16127,0.11393 -0.17369,0.21737 0,0 0,10e-6 0,10e-6 -0.14218,0.53127 -0.43337,1.17299 -0.99387,1.8042 -1.07993,0.51982 -1.67974,0.57518 -1.70258,0.32868 -0.23038,0.16838 0.0532,0.004 0.94683,-0.32848 0.33272,-0.89307 0.49703,-1.17724 0.32872,-0.9469 0,0 2e-5,0 2e-5,0 0.24629,0.0228 0.1918,0.62168 -0.32859,1.703 -1.17345,0.61337 -1.931495,0.61467 -2.081054,0.32881 -0.359266,0.13023 -0.228731,-0.09 0.569309,-0.32865 0.166335,-0.89167 0.389465,-1.12584 0.428825,-0.75766 0.0197,0.18415 -0.007,0.51883 -0.10923,0.99651 -0.13326,0.53183 -0.414142,1.2736 -1.075682,2.02887 -1.05786,0.96919 -2.032856,1.18838 -2.268564,1.5112 0.33259,-0.89308 0.496495,-1.17637 0.328235,-0.94607 0,0 -1.1e-5,1e-5 -1.1e-5,1e-5 0.09053,0.0875 -0.120498,0.75147 -0.79563,1.89512 0,0 -4.6e-5,8e-5 -4.6e-5,8e-5 -0.792992,0.16658 -1.031682,0.0564 -0.617812,0.0368 0,0 1.4e-5,0 1.4e-5,0 0.106826,-0.15731 0.02923,0.0966 -0.427875,0.52473 -0.432122,0.47005 -0.690739,0.53583 -0.509516,0.41247 0,0 6e-6,-4e-5 6e-6,-4e-5 0.09082,-0.60214 0.173461,-0.76661 0.120236,-0.52892 0,0 1.5e-5,1e-5 1.5e-5,1e-5 0.217068,0.1179 0.134862,0.68947 -0.367878,1.62718 -1.07824,0.51896 -1.675449,0.57285 -1.698543,0.3272 -0.229937,0.16747 0.05276,0.003 0.941999,-0.32778 -0.116805,0.15561 -0.168016,0.16411 -0.07899,0.0487 0.21187,-0.16712 0.09437,-0.57256 -0.303569,-1.28048 -0.643125,-0.24872 -0.741263,-0.40839 -0.380342,-0.26224 0.0094,-0.014 0.18297,-0.0164 0.517008,0.0222 0.826098,0.74914 1.059213,1.53813 0.699714,2.31631 0,0 -2.1e-5,2e-5 -2.1e-5,2e-5 -0.329015,0.28169 -0.55123,0.41104 -0.630051,0.43208 l 0,0 c -0.319949,0.17715 -0.63048,0.33276 -0.923899,0.47852 l 0,0 c -0.841499,0.21111 -1.291867,0.19183 -1.31634,0.0705 l 0,0 c -0.126536,0.15196 0.14562,0.005 0.900931,-0.31737 -0.184867,0.18604 -0.346659,0.34466 -0.47037,0.4905 0,0 -2e-6,0 -2e-6,0 -0.104318,0.10152 -0.185683,0.17012 -0.240696,0.20821 l -2e-6,0 c -0.01078,0.0148 -0.02059,0.0255 -0.0264,0.0426 -0.0023,0.007 7.36e-4,0.004 -0.0061,0.005 -0.01231,0.002 -0.02146,0.007 -0.03308,0.012 -0.03121,0.0141 -0.06134,0.0309 -0.09134,0.0479 -1.615274,0.91604 -3.660507,1.50737 -5.748768,1.01692 -1.282201,-0.77423 -1.380499,-1.28829 -0.855885,-0.79524 0,0 1.2e-5,1e-5 1.2e-5,1e-5 -0.02997,-0.0881 -0.330481,-4.6e-4 -0.804921,0.0232 -0.469917,0.0985 -1.154808,0.18955 -2.018475,0.0335 -1.109326,-0.35011 -1.512202,-0.84507 -1.510814,-0.76057 0.226601,-0.0399 -0.389164,0.24898 -1.706906,-0.0677 -1.129956,-0.73136 -1.214795,-1.21135 -0.754638,-0.75914 0.261211,-0.053 0.105067,0.11376 -0.397644,0.14739 0,0 -9e-6,0 -9e-6,0 -0.384783,0.26308 -1.230575,0.23028 -2.27942,-0.43013 -0.503476,-1.04315 -0.552647,-1.62367 -0.314409,-1.6505 0,0 1.4e-5,0 1.4e-5,0 -0.159509,-0.22599 0.001,0.0407 0.316394,0.89256 1.158403,0.21703 1.13509,0.59197 -0.150096,0.33461 -0.91275,-0.27302 -1.461673,-0.68293 -1.784069,-0.86144 -0.461522,-0.23216 -0.998685,-0.46497 -1.577339,-0.799 -1.096371,-0.63634 -1.602101,-1.38457 -1.998848,-1.40787 0,0 7e-6,0 7e-6,0 0.235469,-0.0177 0.09619,0.0721 -0.396737,0.0497 -0.196858,0.0359 -0.88736,0.19567 -1.982245,-0.10076 0,0 -1.7e-5,-1e-5 -1.7e-5,-1e-5 -0.746018,-0.40676 -1.139975,-0.87358 -1.29348,-1.19735 -0.253812,-0.27331 -0.288084,-0.44764 -0.214293,-0.32452 0,0 4e-6,0 4e-6,0 0.231478,-0.0585 0.06148,0.10634 -0.43584,0.14231 0,0 -8e-6,10e-6 -8e-6,10e-6 -0.384521,0.25418 -1.210856,0.22517 -2.218471,-0.41522 -0.482545,-0.99527 -0.5257,-1.55353 -0.297556,-1.58538 -0.148949,-0.22072 0.0065,0.0242 0.300661,0.82632 0.56504,0.19437 0.65324,0.35439 0.424351,0.25076 -0.164505,0.12434 -0.698984,0.20263 -1.54305,0.001 0,0 -1.3e-5,-1e-5 -1.3e-5,-1e-5 -0.901794,-0.47009 -1.396488,-1.09424 -1.65173,-1.56474 0,0 -3e-6,0 -3e-6,0 -0.354867,-0.4257 -0.500653,-0.76439 -0.608553,-0.72135 0.136175,-0.053 -0.04746,0.0626 -0.464443,0.0836 -0.371944,0.14832 -1.044557,0.18415 -1.900898,-0.14639 0,0 -1.4e-5,-1e-5 -1.4e-5,-1e-5 -0.847037,-0.60728 -1.196336,-1.29063 -1.28069,-1.74071 -0.245088,-0.41742 -0.242636,-0.69809 -0.222085,-0.54417 0.659824,0.0349 0.478266,0.24834 -0.479059,0.0988 -1.043643,-0.32692 -1.439946,-0.8221 -1.508982,-0.76829 -0.149028,-0.0885 -0.582782,0.034 -1.254538,0.0182 0.135451,0.0665 -0.351852,0.13997 -1.335476,-0.17077 0,0 -1.7e-5,-2e-5 -1.7e-5,-2e-5 -0.676038,-0.61033 -0.902268,-1.16143 -0.86638,-1.45058 -0.172796,-0.29722 -0.04709,-0.34571 0.117945,-0.0734 0,0 9e-6,0 9e-6,0 0.283136,0.0359 0.340372,0.14074 0.05724,0.10487 -0.209123,0.10449 -0.698162,0.15354 -1.40846,-0.0374 -1.006483,-0.64134 -1.077204,-1.11293 -0.752227,-0.76479 0.57458,0.019 0.295294,0.21341 -0.753299,-0.006 0,0 -1.8e-5,-10e-6 -1.8e-5,-10e-6 -0.996385,-0.63397 -1.066589,-1.10533 -0.75215,-0.76523 0.331458,-0.084 -0.2511,0.30171 -1.506312,-0.0135 -0.681194,-0.36674 -1.043474,-0.81149 -1.202948,-1.13066 -0.244854,-0.2794 -0.306449,-0.47787 -0.300725,-0.40112 0,0 2e-6,0 2e-6,0 0.132413,-0.0782 -0.09037,0.0826 -0.566118,0.1267 -0.383797,0.22451 -1.143584,0.20905 -2.012726,-0.3635 -0.412045,-0.83363 -0.435259,-1.31725 -0.241289,-1.36607 -0.114031,-0.20377 0.02485,-0.0305 0.247401,0.60401 0,0 3e-5,1e-5 3e-5,1e-5 0.639394,0.22147 0.804433,0.35397 0.60142,0.23905 0,0 -10e-6,0 -10e-6,0 -0.0507,0.1911 -0.536411,0.16129 -1.351158,-0.2453 -0.406404,-0.82069 -0.428019,-1.298332 -0.236795,-1.348527 0,0 9e-6,-2e-6 9e-6,-2e-6 -0.111219,-0.202388 0.02631,-0.03493 0.243134,0.586199 0,0 10e-6,2e-5 10e-6,2e-5 0.843875,0.12079 0.725193,0.456 -0.295051,0.24695 -0.740076,-0.19663 -1.347589,-0.55092 -1.837998,-0.926629 0,0 -10e-6,-8e-6 -10e-6,-8e-6 -0.633525,-0.495953 -0.688793,-0.86308 -0.562596,-0.663314 0.232784,-0.100599 -0.356452,0.282488 -1.504363,-0.0182 -0.899009,-0.562958 -0.963488,-1.031836 -0.750431,-0.769286 0.443171,-0.0022 0.147743,0.188991 -0.751946,-0.0097 -0.755881,-0.458668 -0.947737,-0.890144 -0.950065,-0.886362 0.131648,-0.25783 0.285128,-0.49986 0.456695,-0.721506 0.01141,-0.03454 0.02303,-0.06951 0.0333,-0.101249 0.0032,-0.01 0.0064,-0.01672 0.01462,-0.02193 0.05929,-0.03776 0.131068,-0.08186 0.198937,-0.123385 0.135982,-0.08319 0.274503,-0.164982 0.414338,-0.244294 0.09619,0.102971 0.199342,0.212084 0.306841,0.332619 -0.111007,0.259218 -0.16603,0.595467 -0.198989,1.025118 0,0 -3e-6,7e-6 -3e-6,7e-6 -0.01284,0.03043 -0.01907,0.07033 -0.05971,0.09483 -0.05778,0.03482 -0.125502,0.02874 -0.185138,0.0334 -0.434546,0.03391 -0.789696,0.03781 -1.097584,0.07214 -1.273934,-0.86757 -2.51046,-1.846315 -3.588587,-2.685148 -0.52123,-0.42138 -0.614714,-0.771758 -0.63186,-0.701453 0,0 2e-6,-10e-7 2e-6,-10e-7 0.110871,-0.03403 -0.01042,0.04269 -0.275662,0.04807 -0.240824,0.09353 -0.675474,0.126286 -1.223525,-0.07351 -0.685676,-0.452232 -0.772258,-0.875482 -0.746576,-0.774703 0.08841,-0.0403 -0.0445,0.0346 -0.308324,0.0425 -0.24275,0.09021 -0.666247,0.123336 -1.189509,-0.07065 -0.296995,-0.156171 -0.591048,-0.311738 -0.887145,-0.484545 -0.101362,-0.04893 -0.274503,-0.146562 -0.48069,-0.333318 -0.185918,-0.386607 -0.06933,-0.783681 0.342125,-1.140824 0.200538,-0.02397 0.32406,-0.01591 0.370141,-0.0061 0,0 2e-6,0 2e-6,0 0.58241,-0.130191 0.02735,0.113551 0.122313,0.09195 -0.149901,0.298838 -0.205246,0.429748 -0.125042,0.464517 0,0 3e-6,10e-7 3e-6,10e-7 0.0022,-0.04534 -0.09557,-0.130753 -0.218023,-0.277019 0.218621,-0.0026 0.157718,0.145606 -0.17507,0.126598 -0.217436,0.165455 -0.728603,0.20686 -1.308189,-0.155244 0,0 -7e-6,-1.3e-5 -7e-6,-1.3e-5 -0.269471,-0.507766 -0.249528,-0.838682 -0.125214,-0.920939 -0.0554,-0.224541 0.07811,-0.0868 0.140563,0.149657 0.399995,-0.0184 0.164896,0.283958 -0.544141,0.104836 -0.696436,-0.26415 -1.104385,-0.668139 -1.495075,-0.806445 0.0865,-0.03522 -0.0033,0.03749 -0.21743,0.05725 -0.134593,0.197577 -0.494821,0.05762 -0.815862,-0.481735 0,0 6e-6,-1.3e-5 6e-6,-1.3e-5 0.283601,-0.536118 0.616403,-0.650139 0.781957,-0.492696 0.19139,0.179068 0.292778,0.372485 0.331548,0.482765 0,0 -10e-7,-10e-7 -2e-6,-10e-7 -2.968246,-0.734039 -4.519155,-1.367806 -4.474436,-1.501961 0.04467,-0.133999 1.66766,0.289855 4.596993,1.521849 0,0 3e-6,10e-7 3e-6,10e-7 -0.272779,0.111259 -0.485243,0.180398 -0.613392,0.293777 -0.0559,0.114196 -0.06833,-0.0023 0.214993,-0.303714 0,0 6e-6,-7e-6 6e-6,-7e-6 -0.32163,-0.314759 -0.330269,-0.489858 -0.239199,-0.352515 0.08688,-0.05795 0.325241,-0.139052 0.717811,-0.07197 0.622046,0.199271 1.095749,0.593133 1.528726,0.705457 -0.18954,-0.0083 0.154513,-0.257423 0.967772,0.104838 0.262431,0.476903 0.261927,0.818488 0.140564,0.90561 0.05565,0.195688 -0.05194,0.1255 -0.12522,-0.164993 0,0 -2e-6,-8e-6 -2e-6,-8e-6 -0.279008,0.0085 -0.0304,-0.158583 0.203718,-0.155244 0.200736,-0.168203 0.698489,-0.250533 1.336833,0.126598 0.143888,0.120142 0.329229,0.314682 0.486994,0.622004 0,0 7e-6,9e-6 7e-6,9e-6 0.14497,0.182209 0.111585,0.506915 -0.158964,0.915242 -0.494612,0.301205 -0.866258,0.322063 -0.979334,0.24739 0,0 -6e-6,0 -6e-6,0 -0.111919,0.0043 -0.149684,-0.0061 -0.10608,-0.0019 0.333442,-0.343173 0.438699,-0.65506 0.309957,-0.986153 -0.0055,0.0079 0.08045,0.03255 0.226954,0.121611 0.271277,0.143141 0.553657,0.276827 0.85606,0.420352 -0.06755,0.03372 0.05473,-0.05219 0.322397,-0.07065 0.232048,-0.09711 0.651408,-0.149256 1.20358,0.0425 0.66181,0.418843 0.796104,0.861984 0.765328,0.737203 -0.09168,0.02825 0.02002,-0.05866 0.28838,-0.07351 0.231741,-0.0999 0.662184,-0.149633 1.236235,0.04807 0,0 10e-6,3e-6 10e-6,3e-6 0.617027,0.38739 0.819901,0.7958 0.880046,0.810451 1.112513,0.804207 2.36295,1.730883 3.59194,2.513049 0.07456,0.286633 0.09671,0.565034 0.09166,0.7737 -6.92e-4,0.02858 0.0045,0.06718 -0.0021,0.06404 -0.0046,-0.0022 -0.04466,-0.02026 -0.0791,-0.02916 0,0 -8e-6,-2e-6 -8e-6,-2e-6 -0.143209,0.229279 -0.363237,0.400002 -0.629512,0.489448 -0.08618,-0.09153 -0.18234,-0.187161 -0.286552,-0.292779 0.06492,-0.1573 0.128294,-0.317029 0.191355,-0.480462 0.03145,-0.08151 0.05842,-0.161964 0.097,-0.249753 0.0053,-0.01213 0.01563,-0.02276 0.02589,-0.03018 0.03267,-0.02362 0.06381,-0.04421 0.09505,-0.06552 0.275879,-0.152019 0.527785,-0.315678 0.75858,-0.496079 0.560404,0.44315 0.646789,0.806301 0.561839,0.625542 -0.43606,-0.0031 -0.152629,-0.203574 0.759958,-0.0097 0.879554,0.538623 0.983273,1.025068 0.761475,0.74262 -0.207957,0.08865 0.326352,-0.315377 1.519445,-0.0182 0.78708,0.473514 0.99417,0.92025 0.9493,0.848583 0,0 0,-1e-6 0,-1e-6 0.417058,0.278371 0.81317,0.519192 1.185812,0.585279 -0.481526,-0.0828 -0.03044,-0.251699 1.216853,0.246943 0,0 1.9e-5,3.7e-5 1.9e-5,3.7e-5 0.403677,0.807959 0.432814,1.29072 0.243126,1.34214 -10e-7,0 5e-6,1e-5 5e-6,1e-5 0.11355,0.20231 -0.01817,0.0403 -0.236792,-0.592592 -0.627901,-0.21972 -0.798292,-0.357935 -0.595206,-0.245295 0,0 2e-6,-9e-6 2e-6,-9e-6 0.04951,-0.192604 0.530159,-0.170182 1.357351,0.239051 0,0 3.9e-5,1.9e-5 3.9e-5,1.9e-5 0.40943,0.821376 0.439884,1.309956 0.247401,1.359956 0.116277,0.20372 -0.017,0.0357 -0.241289,-0.61012 -0.249338,-0.0319 -0.311,-0.23065 0.132228,-0.17956 0.306876,-0.15069 0.93733,-0.29198 1.82463,-0.0572 0,0 1.4e-5,0 1.4e-5,0 0.67106,0.35244 1.043075,0.79036 1.21118,1.11079 0.248125,0.27239 0.319213,0.47016 0.308957,0.38125 -0.311904,0.0755 0.229065,-0.32589 1.517498,-0.0135 0.983004,0.61702 1.080988,1.10098 0.759742,0.74667 0,0 -6e-6,-1e-5 -6e-6,-1e-5 -0.57564,-0.0228 -0.292423,-0.22177 0.758607,-0.006 0.993713,0.62513 1.091177,1.10887 0.759677,0.74711 -0.247503,0.009 -0.154006,-0.086 0.131124,-0.0914 0.247543,-0.13793 0.789083,-0.14935 1.54145,0.15892 0,0 2.1e-5,1e-5 2.1e-5,1e-5 0.668877,0.59672 0.905513,1.14726 0.873897,1.43848 0.237683,0.3958 -0.0019,0.24333 -0.11044,0.0613 0,0 -5e-6,-10e-6 -5e-6,-10e-6 -0.577737,-0.0444 -0.44474,-0.23285 0.17643,-0.17077 0.329586,-0.0155 0.932725,-0.12625 1.76927,0.0182 1.027634,0.31269 1.448471,0.8085 1.514828,0.74361 -0.451954,-0.0307 -0.08797,-0.17935 1.032847,0.0988 0.836561,0.59077 1.198164,1.26928 1.289819,1.72369 0.248821,0.41129 0.256195,0.69461 0.231201,0.52714 0,0 -10e-7,0 -10e-7,0 -0.187738,0.0295 -0.0342,-0.0908 0.34303,-0.0958 0.340034,-0.13302 0.972198,-0.21184 1.827343,0.0331 0.891381,0.45647 1.394765,1.07269 1.659305,1.5465 0,0 5e-6,1e-5 5e-6,1e-5 0.356239,0.41716 0.512713,0.7563 0.616106,0.70309 0,0 10e-7,0 10e-7,0 -0.261318,0.004 -0.395056,-0.11209 0.05079,-0.12118 0.259318,-0.22337 0.931012,-0.17739 1.85432,0.37338 0.481099,0.98877 0.528103,1.5499 0.300661,1.58228 0.15049,0.22136 -0.0027,-0.0221 -0.297556,-0.82942 -0.454521,-0.10461 -0.444626,-0.30707 -0.07353,-0.23128 0,0 7e-6,0 7e-6,0 0.291612,-0.16008 0.967162,-0.29442 1.954906,-0.0416 0,0 1.9e-5,1e-5 1.9e-5,1e-5 0.740534,0.39934 1.139854,0.86297 1.297611,1.18738 0.255409,0.26982 0.29485,0.444 0.218424,0.31455 0,0 -3e-6,0 -3e-6,0 -0.15525,0.0924 0.214019,-0.13618 1.041551,-0.10077 0.01453,-0.0221 0.392171,-0.0795 1.115152,0.0497 0,0 2.2e-5,10e-6 2.2e-5,10e-6 1.341232,0.50291 2.043273,1.3296 2.536868,1.61595 0.395606,0.23134 0.893212,0.43767 1.446469,0.7129 0.682807,0.32393 1.050992,0.66366 1.239741,0.65046 -0.726559,-0.12718 -0.216808,-0.2638 1.361808,0.33461 0.502423,1.03871 0.554278,1.62137 0.316394,1.64851 0,0 1e-5,10e-6 1e-5,10e-6 0.160469,0.22635 0.0015,-0.0392 -0.314405,-0.89456 -0.494755,-0.12365 -0.505127,-0.33186 -0.13448,-0.24619 0,0 7e-6,0 7e-6,0 0.287052,-0.16267 0.976133,-0.2948 1.993116,-0.0366 1.131113,0.72921 1.214571,1.20466 0.757266,0.75278 -0.377321,0.0728 0.09415,-0.26303 1.316904,-0.0677 1.101461,0.34418 1.515709,0.84022 1.512996,0.75133 0.135228,0.0798 0.492108,-0.0283 1.042655,-0.0822 0.520436,-0.12479 1.27742,-0.15983 2.181567,0.13883 0,0 2.8e-5,1e-5 2.8e-5,1e-5 1.202879,0.77487 1.237255,1.26425 0.656003,0.71666 0.888208,0.46361 2.116144,0.0411 3.322662,-0.49498 0.0224,-0.01 0.04506,-0.0197 0.06895,-0.0265 0.0089,-0.003 0.01534,-0.005 0.02497,-0.004 0.0054,6.1e-4 8.67e-4,0.004 0.0016,-6.7e-4 0.002,-0.0132 0.0081,-0.02 0.01511,-0.0309 l 0,0 c -0.0035,-0.0364 -0.02621,-0.0371 -0.07155,-0.004 -6e-6,0 -3e-6,0 -3e-6,0 0.214631,-0.24861 0.421365,-0.45698 0.604778,-0.63922 0.933782,-0.50089 1.503556,-0.58272 1.621483,-0.36649 l 0,0 c 0.237284,-0.0529 0.07413,0.0295 -0.524988,0.11962 l 0,0 c 0.291044,-0.14646 0.566828,-0.28475 0.819307,-0.42636 l 0,0 c 0.167492,-0.11627 0.203817,-0.10809 0.07758,-0.0228 0,0 -8e-6,0 -8e-6,0 -0.302484,0.72287 -0.08033,1.42654 0.667547,2.16164 0.176291,0.0105 0.191606,0.0265 0.04078,0.0181 -0.02213,0.15736 -0.553156,0.0875 -1.481989,-0.41766 -0.51795,-0.81684 -0.61473,-1.41574 -0.337487,-1.73125 0.241932,-0.46379 0.473219,-0.73675 0.62603,-0.85033 1.076285,-0.51833 1.674741,-0.57352 1.697952,-0.32778 0.230071,-0.16778 -0.05196,-0.004 -0.942592,0.3272 -0.324215,0.75923 -0.471574,1.0332 -0.318756,0.90665 0,0 1.1e-5,-1e-5 1.1e-5,-1e-5 -0.121652,-0.024 -0.140685,-0.4758 0.07111,-1.32026 0,0 1.4e-5,-5e-5 1.4e-5,-5e-5 0.501962,-0.76473 0.925989,-1.06116 1.00239,-1.09943 0.01601,-0.0448 0.266279,-0.43329 0.950395,-0.93184 0,0 2.9e-5,-1e-5 2.9e-5,-1e-5 0.888683,-0.3004 1.267913,-0.18547 1.02771,-0.0185 10e-7,0 -3.3e-5,7e-5 -3.3e-5,7e-5 -0.487858,0.95631 -0.808038,1.30511 -0.795641,1.13918 0,0 -1.7e-5,0 -1.7e-5,0 -0.246154,-0.0229 -0.191822,-0.62136 0.32824,-1.70201 1.050628,-0.9635 2.030777,-1.18757 2.267152,-1.5126 0.142169,-0.0483 0.208776,-0.4446 0.436222,-0.99495 -0.04673,0.31031 -0.09615,0.46268 -0.1181,0.4642 -0.04393,0.003 0.0222,-0.59625 0.437695,-1.73725 1.175684,-0.61444 1.932081,-0.61381 2.081211,-0.32865 0.35469,-0.1285 0.23264,0.089 -0.569142,0.32881 -0.332921,0.89375 -0.496972,1.17744 -0.328579,0.94707 0,0 1.2e-5,-2e-5 1.2e-5,-2e-5 -0.246551,-0.0228 -0.191189,-0.6227 0.328721,-1.70285 1.081198,-0.52032 1.679998,-0.57477 1.702778,-0.32848 0.23031,-0.16826 -0.0538,-0.004 -0.94663,0.32868 0.12223,-0.0516 0.19634,-0.33247 0.34023,-0.72002 0,0 1e-5,-1e-5 1e-5,-1e-5 0.25761,-0.76393 0.78669,-1.39611 1.516,-1.79411 1.41241,-0.31585 1.70607,-0.0837 0.75621,5.3e-4 0.067,0.13451 0.29482,-0.63253 1.37111,-1.42792 0.79825,-0.50054 1.36664,-0.5885 1.45334,-0.71218 0.38711,-0.26275 0.77803,-0.80159 1.37296,-1.3876 0,0 10e-6,-1e-5 10e-6,-1e-5 0.43146,-0.46887 0.69047,-0.53485 0.51141,-0.4139 0,0 0,3e-5 0,3e-5 -0.0899,0.59805 -0.17224,0.76076 -0.11944,0.52363 0,0 -10e-6,0 -10e-6,0 -0.21592,-0.11796 -0.13422,-0.68713 0.36605,-1.61961 0.93382,-0.500531 1.50162,-0.580676 1.61929,-0.364809 0.2361,-0.0521 0.0747,0.03052 -0.52217,0.120559 -0.25007,0.29156 -0.1586,-0.07867 0.61634,-0.672661 0.89696,-0.570921 1.46595,-0.553494 1.31508,-0.590256 0,0 -2e-5,5.9e-5 -2e-5,5.9e-5 -0.32513,0.966394 -0.50282,1.239898 -0.33281,0.928055 0,0 -3e-5,0 -3e-5,0 -0.39463,-0.01004 -0.23191,-0.709846 0.67245,-1.926732 0.88074,-0.267646 1.452,-0.223142 1.64676,-0.08107 0.25263,-0.05304 0.22019,0.06717 -0.27285,0.165204 -0.20109,0.299048 -0.25559,0.206277 -0.12417,0.0085 0,0 0,-7e-6 0,-7e-6 0.0147,-0.249522 0.1944,-0.741036 0.68523,-1.355207 0.95575,-0.884419 1.89516,-1.240506 2.41094,-1.626174 0,0 0,-10e-7 0,-10e-7 0.18267,-0.09628 0.55085,-0.899348 1.7114,-1.627594 0,0 5e-5,-1.3e-5 5e-5,-1.3e-5 0.82351,-0.207124 1.26568,-0.186684 1.29283,-0.06741 0,0 1e-5,-1e-5 1e-5,-1e-5 0.12635,-0.146977 -0.1351,-0.0026 -0.86789,0.309019 0.0464,0.142863 0.0378,-0.435197 0.60105,-1.313997 0.61469,-0.846596 1.28439,-1.325848 1.67628,-1.700331 1.25196,-1.249881 2.43662,-2.398215 3.35338,-3.685404 1.25133,-1.169925 2.1921,-2.609395 3.01638,-4.089622 -1.07712,0.271514 -2.14602,0.535601 -3.20787,0.792059 -1.2e-4,-10e-7 -0.75584,-0.0044 -0.75596,-0.0044 0.10119,0.04978 -0.35518,0.118491 -1.28611,-0.12971 -0.91997,-0.630367 -1.02234,-1.060004 -0.753,-0.761845 0.21517,0.01388 0.38707,0.118873 0.0152,0.09404 0,0 0,0 0,0 -0.22782,0.122565 -0.75993,0.148491 -1.52274,-0.10271 0,0 -3e-5,-8e-6 -3e-5,-8e-6 -0.99772,-0.677239 -1.03313,-1.138744 -0.60056,-0.699248 -0.16268,-0.136653 -0.68581,0.04883 -1.45724,0.06814 0,0 0,10e-7 0,10e-7 -0.45648,0.124438 -1.3388,0.271057 -2.46298,-0.15469 -0.80475,-1.072208 -0.93418,-1.70071 -0.58553,-1.724872 -0.14117,-0.288872 0.0257,-0.06967 0.29452,0.751987 0.92557,0.178933 0.79066,0.454966 0.043,0.325095 -0.76997,-0.0064 -1.56316,0.02562 -2.37705,0.03354 -0.45999,0.0046 -0.92483,0.0071 -1.3992,-0.0045 -0.17068,0.02271 -0.55117,0.02919 -1.10354,-0.120945 -1.14945,-0.68896 -1.20795,-1.216883 -0.75299,-0.764822 0,0 0,-10e-7 0,-10e-7 0.20075,-0.08229 -0.35872,0.234113 -1.50766,-0.01271 -1.1325,-0.677153 -1.19078,-1.20525 -0.75282,-0.765389 0,10e-7 0,-10e-7 0,-10e-7 -0.0352,-0.10786 -0.45629,0.06597 -1.17817,0.03998 0,0 0,1e-6 0,1e-6 0.0564,0.04277 -0.37885,0.11525 -1.21827,-0.116476 0,0 -2e-5,-6e-6 -2e-5,-6e-6 -0.91869,-0.618597 -0.95862,-1.08353 -0.61717,-0.709988 -0.0488,-0.110088 -0.47398,0.06282 -1.18835,0.03714 0,0 0,10e-7 0,10e-7 -0.0422,0.01846 -0.41264,0.07785 -1.07214,-0.05921 -0.80113,-0.299138 -1.230381,-0.699638 -1.506181,-0.773135 0.139746,-0.09121 -0.423638,0.223519 -1.506521,-0.01615 -0.79257,-0.295925 -1.220923,-0.696583 -1.505695,-0.774556 0.312407,-0.01796 0.05839,0.126969 -0.68411,0.01143 -0.923253,-0.247825 -1.633072,-0.624063 -2.260631,-0.784822 -0.301319,-0.154709 -1.119208,0.201901 -2.260525,-0.02932 -0.502414,-0.125482 -1.089271,-0.246848 -1.716786,-0.535101 -0.0499,0.175984 -0.294366,-0.08767 -0.632193,-0.820201 0,0 2.6e-5,-9.4e-5 2.6e-5,-9.4e-5 0.193942,-0.71017 0.36289,-0.992847 0.448264,-0.863844 0,0 1.1e-5,1.7e-5 1.1e-5,1.7e-5 -7.03e-4,-0.208699 0.0084,0.02658 -0.152601,0.682923 0.251146,0.186798 0.0075,0.260065 -0.372681,-0.08434 0.147832,-0.02204 0.0561,0.05731 -0.215655,0.05795 -0.237688,0.09958 -0.692644,0.131311 -1.285657,-0.07914 -0.732073,-0.487331 -0.822759,-0.912274 -0.74821,-0.771437 0.151738,-0.12019 -0.163498,0.140197 -0.793917,0.166425 -0.309246,0.07117 -0.712964,0.0111 -1.137325,-0.235114 -0.430057,-0.340217 -0.571415,-0.726393 -0.550235,-1.001485 0,0 -6e-6,-4e-6 -6e-6,-4e-6 -0.468169,-0.320153 -0.561678,-0.599544 -0.589667,-0.546831 -0.367599,-0.268847 -0.882858,-0.456935 -1.41998,-0.740017 -0.607301,-0.308965 -1.002903,-0.660482 -1.362673,-0.737563 -0.177163,-0.105928 -0.733857,0.126328 -1.503803,-0.03241 -1.404153,-0.41554 -2.208231,-1.310056 -3.042871,-1.605058 0.146552,-0.03631 -0.18751,0.13841 -0.81648,-0.04831 -1.021334,-0.554562 -1.558963,-1.307704 -2.196729,-1.574767 -0.593383,-0.342173 -1.828659,0.126665 -2.529292,0.232723 0,0 -2e-6,0 -2e-6,0 -0.565527,0.107491 -1.06926,0.09275 -1.505289,-0.06968 -1.294335,-0.530654 -0.930609,-1.405763 -1.098302,-1.315954 z"
       id="path14"
       inkscape:connector-curvature="0"
       inkscape:path-effect="#path-effect16"
       inkscape:original-d="m 68.035714,66.434522 c 1.361332,2.54191 3.637309,0.09421 5.291667,0.755954 0.843558,0.337423 1.455232,1.105591 2.267857,1.511904 0.22538,0.112691 0.516898,-0.07969 0.755952,0 1.069078,0.356359 1.930548,1.238591 3.023809,1.511905 0.488921,0.12223 1.022985,-0.122229 1.511906,0 0.546629,0.136658 1.007935,0.503968 1.511903,0.755952 0.503968,0.251984 1.043083,0.443405 1.511906,0.755952 0.296508,0.197672 0.459444,0.558281 0.755952,0.755954 0.380693,1.665486 1.555138,0.399592 2.267857,0.755951 0.318738,0.15937 0.437213,0.596583 0.755952,0.755952 0.450762,0.225383 1.061143,-0.22538 1.511906,0 2.305322,1.152663 -1.382596,0.599292 2.267857,1.511906 0.73338,0.183346 1.534475,-0.183346 2.267855,0 0.773054,0.193262 1.494806,0.562689 2.267857,0.755952 0.244462,0.06112 0.516901,-0.07968 0.755955,0 0.534537,0.178181 0.977365,0.577773 1.511903,0.755951 0.478107,0.159369 1.033798,-0.159366 1.511906,0 0.534536,0.178181 0.977366,0.577773 1.511906,0.755954 0.23905,0.07968 0.50396,0 0.75595,0 0.50397,0 1.0338,-0.159369 1.5119,0 0.33808,0.112689 0.43722,0.596583 0.75596,0.755952 0.22538,0.112691 0.50397,0 0.75595,0 0.50397,0 1.0338,-0.159369 1.5119,0 0.33808,0.112691 0.41788,0.64326 0.75596,0.755952 0.4781,0.159369 1.0338,-0.159369 1.5119,0 0.33807,0.112691 0.41788,0.643263 0.75595,0.755954 0.41806,0.139351 3.77443,0 4.53572,0 0.25198,0 0.57777,-0.178181 0.75595,0 0.17818,0.178178 -0.22538,0.64326 0,0.755952 0.64234,0.321169 3.0283,-0.250489 3.77976,0 0.33807,0.112691 0.43722,0.596582 0.75595,0.755951 0.45077,0.225383 1.06115,-0.22538 1.51191,0 0.31874,0.159369 0.43721,0.596585 0.75595,0.755952 0.22538,0.112691 0.50397,0 0.75595,0 H 123.22024 127 c -1.68005,4.681895 -3.17251,6.196323 -6.04762,9.07143 -0.50397,0.503969 -1.11656,0.918887 -1.5119,1.511905 -0.31255,0.468822 -0.35753,1.113483 -0.75596,1.511905 -0.17818,0.17818 -0.53057,-0.112691 -0.75595,0 -0.63747,0.318737 -0.94173,1.084273 -1.5119,1.511905 -0.72684,0.545125 -1.62542,0.869468 -2.26786,1.511904 -0.39842,0.398422 -0.28713,1.199357 -0.75595,1.511905 -0.41933,0.279551 -1.06114,-0.225381 -1.51191,0 -0.22538,0.112691 0.17818,0.577773 0,0.755953 -0.39842,0.398421 -1.04308,0.443401 -1.5119,0.755951 -0.29651,0.19767 -0.43722,0.59658 -0.75595,0.75595 -0.22539,0.11269 -0.57778,-0.17818 -0.75596,0 -0.17818,0.17818 0.11269,0.53057 0,0.75596 -0.15937,0.31873 -0.50397,0.50396 -0.75595,0.75595 -0.50397,0.50397 -0.94173,1.08427 -1.5119,1.5119 -0.45077,0.33808 -1.04309,0.44341 -1.51191,0.75596 -0.59302,0.39534 -0.87443,1.19316 -1.5119,1.5119 -0.22539,0.11269 -0.53057,-0.11269 -0.75596,0 -1.1578,0.5789 -0.59116,1.34712 -1.5119,2.26786 -0.17818,0.17818 -0.57777,-0.17818 -0.75595,0 -0.17818,0.17818 0.17818,0.57777 0,0.75595 -0.35636,0.35636 -1.155549,-0.35636 -1.511908,0 -0.17818,0.17818 0.07968,0.5169 0,0.75595 -0.17818,0.53454 -0.357531,1.11348 -0.755952,1.51191 -0.642436,0.64243 -1.625422,0.86947 -2.267858,1.5119 -0.178179,0.17818 0.17818,0.57777 0,0.75595 -1.112311,0 -0.577772,-0.17818 -1.511904,0.75596 -0.251985,0.25198 -0.596584,0.43721 -0.755953,0.75595 -0.11269,0.22538 0.17818,0.57777 0,0.75595 -0.178179,0.17818 -0.577772,-0.17818 -0.755952,0 -1.564093,1.56409 2.39014,-0.0611 -0.755953,1.51191 -0.225381,0.11269 -0.577772,-0.17818 -0.755952,0 -1.007936,1.00793 -0.439089,0.59289 -0.755952,0.75595 -1.362881,0.70136 -3.076075,1.22371 -4.535715,0.75595 -0.339359,-0.10875 -0.426719,-0.61958 -0.755952,-0.75595 -0.931212,-0.38572 -2.042836,0.23158 -3.023809,0 -0.54838,-0.12945 -0.963525,-0.6265 -1.511905,-0.75595 -0.490487,-0.11579 -1.046299,0.19286 -1.511905,0 -0.329234,-0.13637 -0.426718,-0.61959 -0.755952,-0.75596 -0.698408,-0.28929 -1.733319,0.53454 -2.267858,0 -0.178179,-0.17818 0.178179,-0.57777 0,-0.75595 -0.17818,-0.17818 -0.510709,0.0579 -0.755952,0 -0.54838,-0.12945 -1.007937,-0.50397 -1.511905,-0.75595 -0.503968,-0.25198 -1.024568,-0.47314 -1.511904,-0.75595 -0.785808,-0.45602 -1.398299,-1.24863 -2.267858,-1.51191 -0.241172,-0.073 -0.503968,0 -0.755952,0 -0.503968,0 -1.046299,0.19286 -1.511905,0 -0.658465,-0.27274 -0.853439,-1.23916 -1.511904,-1.5119 -0.698409,-0.28929 -1.733319,0.53454 -2.267858,0 -0.178181,-0.17818 0.178181,-0.57778 0,-0.75596 -0.356359,-0.35636 -1.046298,0.19286 -1.511904,0 -0.987698,-0.40912 -1.28016,-1.85873 -2.267858,-2.26785 -0.698409,-0.28929 -1.601353,0.3567 -2.267857,0 -0.801039,-0.4287 -0.710865,-1.83916 -1.511904,-2.26786 -0.222168,-0.1189 -0.510709,0.0579 -0.755953,0 -0.54838,-0.12945 -0.963525,-0.6265 -1.511905,-0.75595 -0.490486,-0.11579 -1.007936,0 -1.511904,0 -0.251984,0 -0.541602,0.13248 -0.755953,0 -0.479303,-0.29623 -0.276649,-1.21568 -0.755952,-1.51191 -0.428701,-0.26495 -1.046299,0.19286 -1.511905,0 -0.329233,-0.13637 -0.426719,-0.61958 -0.755952,-0.75595 -0.232803,-0.0964 -0.52315,0.0964 -0.755953,0 -0.329233,-0.13637 -0.426719,-0.61958 -0.755952,-0.75595 -0.465606,-0.19286 -1.046299,0.19286 -1.511905,0 -0.658467,-0.27275 -0.853438,-1.23916 -1.511905,-1.51191 -0.698409,-0.28929 -1.733318,0.53454 -2.267857,0 -0.178179,-0.17818 0.178179,-0.57777 0,-0.75595 -0.17818,-0.17818 -0.577772,0.17818 -0.755952,0 -0.178179,-0.17818 0.178179,-0.577772 0,-0.755951 -0.17818,-0.17818 -0.510709,0.05789 -0.755952,0 -0.548381,-0.129455 -1.054807,-0.426496 -1.511905,-0.755953 -0.289094,-0.208367 -0.42672,-0.619579 -0.755953,-0.755952 -0.465606,-0.19286 -1.046298,0.19286 -1.511904,0 -0.329233,-0.136373 -0.42672,-0.61958 -0.755953,-0.755953 -0.232803,-0.09643 -0.523149,0.09643 -0.755952,0 -0.329233,-0.136373 -0.475068,-0.536644 -0.755952,-0.755952 -1.158116,-0.90423 3.716619,3.354431 -3.779762,-2.267857 -0.285088,-0.213816 -0.437215,-0.596584 -0.755953,-0.755952 -0.450763,-0.225382 -1.061142,0.225381 -1.511905,0 -0.318737,-0.159369 -0.437214,-0.596584 -0.755952,-0.755953 -0.450763,-0.225381 -1.061142,0.225382 -1.511905,0 -3.146092,-1.573046 0.80814,0.05219 -0.755952,-1.511905 -0.356359,-0.356359 -1.155545,0.35636 -1.511905,0 -0.178179,-0.178179 0.17818,-0.577772 0,-0.755952 -0.178179,-0.17818 -0.516899,0.07968 -0.755952,0 -0.534539,-0.17818 -0.977366,-0.577773 -1.511905,-0.755952 -0.239053,-0.07969 -0.755952,0.251984 -0.755952,0 0,-0.251985 0.503968,0 0.755952,0 l -4.535714,-1.511905"
       sodipodi:nodetypes="csccscsccccccccccccsccsccccsccscccsccsccccccccccsccscccsssccccccccsccaaaaaaaaaaaaaaaaaaaaaaaaaaaaaaaaaaaaaaaaaaaasccsssscccscc"
       transform="translate(19.454657,-5.4473043)" />
    <path
       style="fill:#000000;stroke:none;stroke-width:0.26458332px;stroke-linecap:butt;stroke-linejoin:miter;stroke-opacity:1"
       d="m 21.347476,89.522344 c 0.246135,0.02325 0.607722,3.397619 0.844424,8.662177 0,0 0,10e-7 0,10e-7 0.137721,3.001898 0.234662,6.619168 0.275735,10.583328 0.0081,0.78596 0.05218,1.61585 0.07158,2.49257 0.01006,0.43918 0.0181,0.89875 0.01015,1.37169 -0.0021,0.15616 -0.0072,0.33317 -0.02231,0.52998 10e-7,-2e-5 -8.72e-4,0.0113 -8.71e-4,0.0113 0.04472,-0.01 0.001,0.23714 -0.176334,0.72181 0,0 -4e-6,10e-6 -4e-6,10e-6 -0.684323,0.99242 -1.111459,1.09405 -0.757757,0.75505 0,0 1e-6,-1e-5 1e-6,-1e-5 0.08263,-0.94197 0.315374,-0.66113 -0.0028,0.75454 -0.684488,0.99021 -1.110029,1.08723 -0.762068,0.75289 0.03016,-0.52797 0.19166,-0.50012 0.131804,0.16974 -0.0049,0.50971 -0.01064,1.01387 -0.01732,1.5119 -0.02873,2.14434 -0.07396,4.17519 -0.13317,6.04762 -0.106679,3.37363 -0.258731,6.23301 -0.441397,8.31548 -0.44341,1.35943 -0.641796,2.34038 -0.712185,2.9858 -0.212471,-0.46882 -0.116836,-0.71794 -1.66e-4,-0.71794 0.11667,0 0.212305,0.24912 -1.66e-4,0.71794 -0.07039,-0.64542 -0.268775,-1.62637 -0.712185,-2.9858 -0.182666,-2.08247 -0.334718,-4.94185 -0.441397,-8.31548 -0.05921,-1.87243 -0.10444,-3.90328 -0.13317,-6.04762 -0.0067,-0.49803 -0.01246,-1.00219 -0.01732,-1.5119 -0.05491,0.1271 -0.131285,-0.31998 0.131804,-1.34216 0.668496,-0.97542 1.109378,-1.09934 0.749836,-0.75901 -0.08541,0.95365 -0.317224,0.6513 -0.0028,-0.75738 0,0 3e-6,-1e-5 3e-6,-1e-5 0.674616,-0.98081 1.113898,-1.10013 0.754145,-0.75684 0,0 -2e-6,0 -2e-6,0 -0.105505,0.3414 -0.151846,0.41601 -0.09433,0.24586 1.71e-4,-0.002 3.41e-4,-0.004 5.08e-4,-0.006 0.0088,-0.10245 0.01142,-0.22582 0.0148,-0.36848 0.0083,-0.41286 0.0026,-0.84107 -0.0032,-1.27504 -0.01196,-0.84954 -0.04385,-1.65517 -0.03552,-2.54064 0.04107,-3.96416 0.138014,-7.58143 0.275735,-10.583328 0,0 1e-6,-10e-7 1e-6,-10e-7 0.241997,-5.302879 0.636373,-8.715979 1.206043,-8.662177 z"
       id="path18"
       inkscape:connector-curvature="0"
       inkscape:path-effect="#path-effect20"
       inkscape:original-d="m 21.347476,89.522344 c -0.271882,2.878746 -0.18081,5.774372 -0.18081,8.662178 0,3.527778 0,7.055558 0,10.583328 0,0.94894 0.142805,4.25011 0,4.53572 -0.159368,0.31874 -0.596583,0.43722 -0.755952,0.75595 -0.112691,0.22538 0.112691,0.53057 0,0.75596 -0.159369,0.31873 -0.596584,0.43721 -0.755952,0.75595 -0.112691,0.22538 0,0.50397 0,0.75595 0,0.50397 0,1.00794 0,1.5119 0,2.01588 0,4.03175 0,6.04762 0,2.77183 0,5.54365 0,8.31548 0,0.21092 0,4.69436 0,2.26786"
       transform="translate(19.454657,-5.4473043)" />
    <path
       style="fill:#000000;stroke:none;stroke-width:0.26458332px;stroke-linecap:butt;stroke-linejoin:miter;stroke-opacity:1"
       d="m 19.654928,135.18818 c 0.169432,-0.0766 0.844389,1.02659 2.808702,2.39286 0,0 1e-6,0 1e-6,0 0.756982,0.51055 2.104227,1.34951 3.061827,2.50254 0.508093,0.68545 0.549665,1.35916 0.737586,1.38551 0.09759,0.17128 0.638704,0.15582 1.390451,0.58459 0.747666,0.41326 1.60306,0.90013 2.414519,1.5116 0.742617,0.58676 1.115925,1.24869 1.477887,1.41647 -0.895345,-0.0872 -0.572152,-0.38761 0.766754,-0.0162 1.120475,0.7541 1.739164,1.63217 2.472081,2.34497 0.12793,0.19212 0.254493,0.38525 0.379822,0.57948 -0.349748,-0.17266 0.0013,-0.34793 1.156904,0.15166 0.710575,0.85708 0.820955,1.56893 0.920093,1.66637 0.01238,0.0302 0.121914,0.11788 0.286849,0.30063 0,0 2e-6,0 2e-6,0 0.218911,0.2257 0.446562,0.45048 0.682399,0.67937 0.231936,0.22489 0.464962,0.44695 0.699692,0.66075 0.165023,0.14747 0.236044,0.24086 0.242461,0.23148 0.561704,0.26941 1.135715,0.5447 1.704831,0.80835 l 0,0 c -0.05307,0.42349 -0.113199,0.84642 -0.17957,1.26667 0,0 -2e-6,1e-5 -2e-6,1e-5 l 0,0 c 0,1e-5 0,1e-5 0,1e-5 -0.0034,0.1257 -0.0034,0.12357 -0.0069,0.24927 -5.32e-4,0.02 -0.0011,0.0401 -0.0015,0.0597 -0.0079,0.0222 -0.03609,0.0511 -0.05845,0.0764 -0.02381,0.0228 -0.127694,0.12258 -0.151504,0.14537 -0.16449,0.15791 -0.33128,0.3177 -0.499735,0.47839 -0.180534,-0.0776 -0.311676,-0.13991 -0.398115,-0.16058 -0.199519,-0.26316 0.09794,-0.64096 0.909419,-1.07195 0,0 5.4e-5,-3e-5 5.4e-5,-3e-5 l 0,0 c -0.01371,-0.008 -0.01762,-0.006 -0.01561,-0.008 0.0047,-0.004 0.01953,-0.0132 0.03369,-0.0223 0.206888,-0.13293 0.580353,-0.27761 1.02728,-0.32007 0,0 3e-6,0 3e-6,0 0.06979,0.0645 0.762828,0.14386 1.713819,0.90178 0.502754,1.03811 0.556655,1.62325 0.318495,1.65036 0.01152,0.1639 -0.296257,-0.16224 -0.764917,-1.08578 0.0675,-0.0639 0.12074,-0.12935 0.158799,-0.20371 l 0,0 9e-6,4e-5 0,0 c 0.128892,0.4115 0.250116,0.82399 0.363533,1.2366 0,0 9e-6,3e-5 9e-6,3e-5 0,0 5e-6,0 5e-6,0 0.04278,0.0482 0.08444,0.0953 0.128771,0.13997 0.0091,0.038 0.01692,0.0762 0.0272,0.11343 0.02111,0.0816 0.04488,0.16087 0.07147,0.2377 0,0 3e-6,1e-5 3e-6,1e-5 0.07072,0.20429 0.159623,0.39139 0.282354,0.56995 0.191841,-1.08918 0.384976,-1.4094 0.184753,-1.16121 -0.739673,-0.31548 -1.005949,-0.46177 -0.879652,-0.31328 0,0 3e-6,0 3e-6,0 0.02594,-0.12036 0.4703,-0.1413 1.302569,0.0673 0,0 2.2e-5,0 2.2e-5,0 0.969718,0.66453 1.089542,1.10253 0.758702,0.75051 -0.592519,-0.0896 -0.751421,-0.17235 -0.516697,-0.12129 0.117454,-0.21507 0.682273,-0.13674 1.613448,0.36213 0,0 2.7e-5,2e-5 2.7e-5,2e-5 0.498361,0.92777 0.580818,1.49622 0.365647,1.61439 0.05302,0.23744 -0.02897,0.0751 -0.118092,-0.52098 -0.13099,-0.2011 -0.14268,-0.24418 -0.06519,-0.12398 0.06261,0.0714 0.135946,0.14914 0.217762,0.23565 0.225401,0.23757 0.460454,0.47461 0.70296,0.71563 0.240632,0.2389 0.480049,0.47319 0.720306,0.698 0,0 2e-6,0 2e-6,0 0.08677,0.0809 0.165145,0.15381 0.237054,0.21576 0,0 8e-6,0 8e-6,0 0.12321,0.0789 0.07546,0.0636 -0.125373,-0.0676 -0.950857,-0.0846 -0.654019,-0.31662 0.756636,-0.001 0,0 2.1e-5,0 2.1e-5,0 1.301297,0.83457 1.531602,1.70728 1.512998,1.5097 -0.355788,-0.0362 -0.409476,-0.13859 -0.110429,-0.11097 0.0087,-0.005 0.01794,-0.0102 0.02768,-0.015 0.24082,-0.11941 0.793142,-0.1313 1.594667,0.12595 0.293299,0.14097 0.650195,0.32256 1.04003,0.59197 0.07961,0.28382 0.242032,0.67308 0.470194,1.18021 l 0,0 c -0.229552,0.26342 -0.420708,0.50483 -0.606687,0.70621 0,0 -2.3e-5,3e-5 -2.3e-5,3e-5 -0.531323,0.57531 -0.806536,0.79707 -0.734251,0.78289 0,0 4e-6,0 4e-6,0 l 0,0 c -0.224062,-0.008 -0.404351,-0.0283 -0.541204,-0.0469 l 0,0 -2e-6,-2e-5 0,0 c -0.06677,-0.43493 -0.02881,-0.87099 0.112005,-1.28268 l 0,0 c -0.01763,-0.01 -0.05205,-0.0215 -0.04693,-0.0158 0.0095,0.0106 0.04625,-7.7e-4 0.07259,-0.006 0.664232,-0.12429 1.465688,-0.33643 2.326024,-0.46162 -0.316698,0.0183 -0.308849,-0.0873 0.0856,-0.10342 0,0 4e-6,-10e-6 4e-6,-10e-6 0.285646,-0.2271 0.987551,-0.1524 1.93555,0.42505 0,0 1.4e-5,10e-6 1.4e-5,10e-6 0.51571,1.07165 0.567183,1.66369 0.323254,1.68755 0.165123,0.22881 0.0012,-0.0506 -0.32584,-0.92902 -0.779757,-0.23019 -0.91303,-0.45023 -0.549299,-0.32017 0,0 5e-6,0 5e-6,0 0.152287,-0.28194 0.9055,-0.27818 2.05517,0.32619 0.511728,1.06288 0.561713,1.65038 0.319647,1.67518 0,0 4e-6,10e-6 4e-6,10e-6 0.162897,0.22771 -2.74e-4,-0.0476 -0.323093,-0.91576 0,0 -9e-6,-2e-5 -9e-6,-2e-5 -0.871107,-0.32227 -1.142288,-0.4821 -0.914269,-0.31823 0,0 1e-6,-1e-5 1e-6,-1e-5 0.02583,-0.24073 0.61592,-0.18595 1.666446,0.32197 0,0 2.9e-5,2e-5 2.9e-5,2e-5 0.508397,1.0555 0.557203,1.63926 0.316709,1.66484 0.161101,0.22684 -0.0014,-0.045 -0.320759,-0.90484 -0.736397,-0.31189 -0.995349,-0.45352 -0.868679,-0.30555 0,0 10e-7,0 10e-7,0 0.02782,-0.11816 0.472254,-0.1359 1.289316,0.0713 0,0 2.2e-5,0 2.2e-5,0 0.55096,0.32368 0.836191,0.62283 0.939322,0.77129 0.340431,0.34089 0.660409,0.68365 0.965551,1.01329 0.346989,0.37443 0.557975,0.60692 0.904963,0.98135 0.230729,0.23156 0.338859,0.38915 0.384044,0.41082 0,0 1e-6,0 1e-6,0 0.528382,0.31795 0.875919,0.63153 1.036732,0.52481 0.209653,-0.0752 0.8364,-0.14776 1.780804,0.15061 0.926161,0.63833 1.017838,1.06323 0.749094,0.76968 10e-7,0 -1e-5,0 -1e-5,0 -0.814442,-0.0583 -0.527452,-0.28711 0.750734,0.0104 0.675706,0.42591 1.018911,0.88234 1.165435,1.1816 0.234943,0.24574 0.266687,0.42235 0.182583,0.30071 -0.236504,0.0831 0.340532,-0.22641 1.503129,0.0263 0.753099,0.35391 1.152809,0.81114 1.312073,1.15279 0.255112,0.30922 0.316585,0.5183 0.324687,0.45801 0,0 -8e-6,0 -8e-6,0 -0.706778,-0.0388 -0.419144,-0.26544 0.748343,0.0152 1.11787,0.7124 1.374806,1.50893 1.595499,1.61945 0.253019,0.20885 0.837049,0.36219 1.48702,0.79329 0.648922,0.50243 0.721677,0.86733 0.640436,0.7247 -0.596848,-0.0157 -0.266843,-0.23382 0.745341,0.0212 0.71899,0.48716 0.851992,0.88971 0.832377,0.84052 0.283494,0.23235 0.871103,0.39354 1.478538,0.806 0.59724,0.46383 0.66519,0.82781 0.65145,0.7442 -0.456101,0.0117 -0.111512,-0.20088 0.741213,0.0295 0.700871,0.47396 0.754853,0.88364 0.733729,0.80041 -0.230059,-0.01 -0.274994,-0.0712 -0.06958,-0.0541 0,0 2e-6,0 2e-6,0 0.124211,-0.11974 0.487845,-0.0803 0.972044,0.20762 0.141721,0.13676 0.315419,0.3484 0.455556,0.65399 0,0 3e-6,0 3e-6,0 0.141893,0.18842 0.09197,0.51553 -0.1723,0.90204 -0.51102,0.29465 -0.852622,0.27299 -0.964651,0.19579 -0.113145,-0.003 -0.14571,-0.0202 -0.123527,-0.021 0,0 1e-5,-1e-5 1e-5,-1e-5 0.284161,-0.30093 0.364256,-0.56154 0.258217,-0.83292 0,0 -4e-6,-1e-5 -4e-6,-1e-5 0.0026,0.03 0.09828,0.0776 0.228802,0.16943 0.268673,0.17641 0.574272,0.35965 0.818619,0.50851 -0.110894,0.02 -0.06534,-0.0253 0.104752,-0.0215 0.132977,-0.0815 0.41632,-0.0479 0.711475,0.15253 0.199391,0.25153 0.232935,0.50129 0.211561,0.67968 0.07876,0.22944 -0.140609,0.48944 -0.46315,0.57769 -0.406902,-0.20403 -0.365031,-0.46662 -0.281997,-0.57081 0.111141,-0.29889 0.265824,-0.43497 0.281997,-0.43497 0.06493,0 0.08806,0.23509 0.09301,0.50997 -0.275295,-0.39702 0.384841,0.65908 -0.09301,-0.004 0.05275,-0.0522 -0.338024,0.17245 -0.140526,-0.0446 -0.03735,-0.10918 -0.06955,-0.21846 -0.111064,-0.20991 0.100235,0.0241 0.142817,0.11826 -0.0091,0.10341 -0.08896,0.0671 -0.313688,0.13055 -0.686602,0.0276 -0.273009,-0.10913 -0.59916,-0.24261 -0.924587,-0.39636 -0.105557,-0.0399 -0.276285,-0.11718 -0.478843,-0.28549 0,0 -6e-6,-1e-5 -6e-6,-1e-5 -0.162555,-0.32607 -0.07263,-0.67242 0.290384,-0.98759 0,0 1.3e-5,-1e-5 1.3e-5,-1e-5 0.180484,-0.0288 0.300918,-0.0279 0.352704,-0.0251 0.279955,-0.0736 0.331761,0.0107 0.136997,0.0403 -0.145668,0.27902 -0.213565,0.41342 -0.138379,0.4513 0,0 2e-6,0 2e-6,0 -0.01128,-0.0381 -0.112229,-0.1029 -0.249462,-0.24503 0.325142,0.11798 0.359521,0.20525 0.251495,0.1585 0,0 -2e-6,0 -2e-6,0 -0.07449,0.0819 -0.362749,0.12837 -0.860932,-0.005 -0.644201,-0.39477 -0.811274,-0.85158 -0.778175,-0.71151 0.431666,0.003 0.127391,0.24718 -0.770692,0.0295 -0.639337,-0.39639 -0.843915,-0.82235 -0.860457,-0.7677 -0.298056,-0.19121 -0.856456,-0.29004 -1.545268,-0.7059 -0.60579,-0.43996 -0.743205,-0.83088 -0.679526,-0.67138 0.578485,0.0269 0.276646,0.26658 -0.766568,0.0212 -0.713336,-0.45868 -0.912603,-0.88444 -0.871468,-0.7872 -0.26726,-0.18039 -0.829055,-0.28697 -1.53679,-0.71863 -0.944403,-0.6662 -1.228104,-1.45772 -1.428309,-1.40435 0.709521,0.0477 0.409906,0.28494 -0.763554,0.0152 0,0 -1.3e-5,0 -1.3e-5,0 -0.640292,-0.38467 -0.992609,-0.82267 -1.158218,-1.12392 -0.242657,-0.24057 -0.296563,-0.41471 -0.228835,-0.2891 0.207211,-0.0657 -0.303125,0.27027 -1.520682,0.0263 -0.755777,-0.34196 -1.185945,-0.79443 -1.358322,-1.14118 -0.264244,-0.29588 -0.335264,-0.49744 -0.317466,-0.40031 0.817694,0.0648 0.519614,0.30019 -0.761165,0.0104 0,0 -1.6e-5,0 -1.6e-5,0 -0.909498,-0.61393 -1.0387,-1.05543 -0.762813,-0.74224 0.264901,-0.0463 0.07127,0.12295 -0.488149,0.12127 -1.205835,0.0225 -2.143485,-0.43052 -2.741933,-0.95775 0,0 -5e-6,0 -5e-6,0 -0.36389,-0.28515 -0.580915,-0.53202 -0.705152,-0.67454 -0.314051,-0.32416 -0.621815,-0.64862 -0.928709,-0.96733 -0.308583,-0.32023 -0.613444,-0.63578 -0.918588,-0.93028 -0.284885,-0.23325 -0.361612,-0.37713 -0.301283,-0.29872 0,0 1.5e-5,0 1.5e-5,0 0.577822,0.0868 0.730054,0.16929 0.497974,0.12038 0,0 -6e-6,0 -6e-6,0 -0.11741,0.21168 -0.673622,0.13629 -1.589227,-0.35466 -0.506115,-1.04616 -0.560596,-1.63452 -0.320762,-1.66079 -0.163073,-0.22762 -0.0038,0.0417 0.316712,0.90889 0,0 2.4e-5,1e-5 2.4e-5,1e-5 0.864129,0.32115 1.137788,0.484 0.910504,0.32198 0,0 -6e-6,-1e-5 -6e-6,-1e-5 -0.02518,0.24132 -0.610876,0.1919 -1.670223,-0.31823 0,0 -1.4e-5,-3e-5 -1.4e-5,-3e-5 -0.50961,-1.05459 -0.564668,-1.64629 -0.323089,-1.67169 0,0 7e-6,0 7e-6,0 -0.164598,-0.22839 -0.0042,0.0445 0.319645,0.91923 0.787256,0.23415 0.888311,0.44722 0.543266,0.32619 0,0 -2e-6,1e-5 -2e-6,1e-5 -0.150017,0.28196 -0.896208,0.28858 -2.061196,-0.32018 -0.513895,-1.06494 -0.56958,-1.66065 -0.325842,-1.68497 -0.166394,-0.22932 -0.0047,0.0481 0.323256,0.9316 0,0 9e-6,1e-5 9e-6,1e-5 0.596147,0.22564 0.716285,0.38953 0.514968,0.2773 0,0 -3e-6,0 -3e-6,0 -0.150687,0.10874 -0.666291,0.19743 -1.517612,0.0443 -0.58887,-0.60826 -1.28814,-1.21228 -2.02975,-1.98761 -0.02942,-0.0308 -0.06949,-0.0552 -0.08265,-0.10177 -0.0071,-0.0251 0.0253,-0.0328 0.04081,-0.0424 l 0,0 c 0.356254,-0.41105 0.60793,-0.80837 0.755441,-1.2174 l 0,0 5e-6,-2e-5 0,0 c 0.139354,0.0149 0.236526,0.0285 0.291238,0.0274 l 0,0 c 0,0 1.1e-5,0 1.1e-5,0 0.246779,-0.01 0.20019,0.25753 -0.234785,0.68699 0,0 -1.9e-5,2e-5 -1.9e-5,2e-5 -0.152271,0.15033 -0.378208,0.32373 -0.644925,0.53847 0.142783,0.39516 0.188331,0.70055 0.15298,0.90277 -0.149993,-0.11392 -0.390332,-0.22488 -0.692312,-0.38154 0.356268,0.0362 0.392693,0.12945 0.141782,0.1134 -0.01,-6.4e-4 -0.02044,-0.001 -0.03133,-0.002 -0.224163,0.13301 -0.788384,0.15671 -1.622332,-0.11097 -1.317115,-0.84682 -1.528701,-1.70696 -1.510814,-1.5141 0,0 1.4e-5,0 1.4e-5,0 0.944923,0.0832 0.658955,0.3157 -0.755261,-0.001 -0.316011,-0.18895 -0.453399,-0.2981 -0.427282,-0.30367 0,0 2e-6,0 2e-6,0 -0.11479,-0.10075 -0.217717,-0.19669 -0.310858,-0.28512 0,0 -3e-6,0 -3e-6,0 -0.26716,-0.2529 -0.524042,-0.50699 -0.772986,-0.75767 -0.251119,-0.2526 -0.502855,-0.51042 -0.7527,-0.77766 -0.0881,-0.094 -0.183277,-0.19729 -0.283112,-0.31226 -0.0055,0.0254 -0.114186,-0.11216 -0.301244,-0.4259 -0.210349,-0.8395 -0.190113,-1.28747 -0.06897,-1.31233 -0.150699,-0.12644 -0.0035,0.14427 0.316529,0.89384 0,0 2.2e-5,10e-6 2.2e-5,10e-6 0.752068,0.31989 1.019575,0.46431 0.892902,0.31302 -0.02559,0.12019 -0.475701,0.13785 -1.30805,-0.0722 -0.979041,-0.67613 -1.080079,-1.10452 -0.7532,-0.76141 0,0 1.6e-5,0 1.6e-5,0 0.588639,0.0873 0.747712,0.16873 0.511218,0.11642 0,0 -3e-6,1e-5 -3e-6,1e-5 -0.118343,0.213 -0.682396,0.13133 -1.6002,-0.36242 -0.553808,-0.10298 -0.750458,-0.99436 -0.216729,-2.4394 0.226971,0.0697 0.454594,0.18674 0.667458,0.34181 0,0 10e-6,1e-5 10e-6,1e-5 0.08005,0.0583 0.158287,0.12204 0.234531,0.19117 0.0343,0.0318 0.07008,0.0642 0.103575,0.0985 0.01106,0.0492 0.02313,0.0988 0.03246,0.14992 0,0 1e-6,0 1e-6,0 0,0 2e-6,3e-5 2e-6,3e-5 0.01715,0.42101 0.04195,0.83927 0.07445,1.25567 l 0,0 2e-6,3e-5 0,0 c -0.41242,-0.0514 -0.809879,-0.11298 -1.190751,-0.17686 -0.656123,-1.11081 -0.854271,-1.75349 -0.764917,-1.84173 -0.159379,-0.22599 0.0025,0.0426 0.318495,0.89441 0.141953,-0.0511 -0.443423,-0.0504 -1.309993,-0.61012 0,0 -2e-6,-1e-5 -2e-6,-1e-5 -0.243533,-0.50293 -0.600188,-1.06309 -0.966757,-1.78117 -0.02503,-0.049 -0.05149,-0.0986 -0.06872,-0.1541 -0.0073,-0.0236 -0.0089,-0.0511 -7.93e-4,-0.0686 l 0,0 c 0,0 6e-5,-3e-5 6e-5,-3e-5 0.905036,-0.4719 1.310465,-0.79267 1.208271,-1.02558 0.292212,0.0972 0.522666,0.20251 0.699475,0.29072 -0.0109,0.23382 -0.02102,0.46836 -0.03074,0.70402 -0.04987,1.20809 0.04077,-0.98914 -0.0091,0.21894 -0.0042,0.0352 -0.0025,0.0668 -0.01298,0.107 -0.02262,0.0126 -0.03702,0.0268 -0.0514,0.041 -0.03352,0.033 -0.143062,0.14037 -0.176578,0.17337 -2e-6,0 -4e-6,0 -6e-6,0 l 0,0 c 0,0 -8e-6,1e-5 -8e-6,1e-5 -0.315388,0.30585 -0.621797,0.61019 -0.920507,0.91519 l 0,0 c -0.62662,-0.31329 -1.245092,-0.6331 -1.841969,-0.94299 -0.330399,-0.2339 -0.542301,-0.43724 -0.670055,-0.56457 -0.253887,-0.24484 -0.497872,-0.49094 -0.733292,-0.73341 -0.23954,-0.24648 -0.477223,-0.49624 -0.711764,-0.75361 0,0 -2e-6,0 -2e-6,0 -0.113237,-0.11357 -0.298194,-0.30699 -0.509198,-0.61188 -0.539036,-0.85981 -0.511154,-1.4233 -0.591817,-1.35745 0.713615,0.10635 0.582787,0.34865 -0.354998,0.15166 -0.383653,-0.31474 -0.761032,-0.62556 -1.132082,-0.93242 -0.877807,-0.89673 -1.411883,-1.76304 -2.063633,-2.19075 0.893268,0.078 0.585347,0.36728 -0.74515,-0.0162 -0.862162,-0.64829 -1.20554,-1.32769 -1.545925,-1.60733 -0.645514,-0.55396 -1.413637,-1.0524 -2.121198,-1.51223 -0.255848,-0.17577 -0.957906,-0.32554 -1.633356,-0.9273 -0.650535,-0.8121 -0.631326,-1.45564 -0.774318,-1.63831 -0.620183,-0.94619 -1.8593,-1.92295 -2.550113,-2.54715 0,0 -10e-7,0 -10e-7,0 -1.964268,-1.72442 -2.367097,-3.12418 -2.162356,-3.21679 z"
       id="path34"
       inkscape:connector-curvature="0"
       inkscape:path-effect="#path-effect36"
       inkscape:original-d="m 19.654928,135.18818 c 1.074818,2.37607 3.789429,3.32691 5.2915,5.32967 0.338072,0.45077 0.357531,1.11349 0.755953,1.51191 0.398422,0.39842 1.028748,0.46606 1.511904,0.75595 0.779068,0.46744 1.558406,0.94434 2.267857,1.51191 0.556541,0.44523 0.918887,1.11656 1.511906,1.5119 0.209664,0.13978 0.546288,-0.13977 0.755952,0 0.889526,0.59302 1.511905,1.51191 2.267857,2.26786 0.251984,0.25198 0.503968,0.50397 0.755952,0.75595 0.251984,0 0.577773,-0.17818 0.755951,0 0.398423,0.39842 0.443405,1.04309 0.755955,1.51191 0.207044,0.31056 1.957289,2.06081 2.267857,2.26785 5.481092,2.74055 -1.195266,-0.79684 2.267855,1.51191 0.468823,0.31255 1.113483,0.35753 1.511906,0.75595 0.178181,0.17818 -0.178181,0.57777 0,0.75595 2.015873,0 -0.251984,-0.25198 0.755951,0.75595 0.178181,0.17819 0.530572,-0.11268 0.755955,0 0.318735,0.15937 0.437213,0.59659 0.755951,0.75596 0.22538,0.11269 0.577774,-0.17818 0.755952,0 0.178181,0.17818 -0.112691,0.53057 0,0.75595 0.100356,0.20071 2.067144,2.1675 2.267857,2.26786 0.225383,0.11269 0.530572,-0.11269 0.755952,0 0.637477,0.31874 0.874429,1.19317 1.511906,1.5119 0.450763,0.22538 1.06114,-0.22538 1.511903,0 3.4597,1.72985 -3.207819,-0.31332 2.267858,1.51191 0.478107,0.15937 1.155546,-0.35636 1.511905,0 0.178179,0.17818 -0.178181,0.57777 0,0.75595 0.35636,0.35636 1.155544,-0.35636 1.511904,0 0.178181,0.17818 -0.178179,0.57777 0,0.75595 0.178181,0.17818 0.577773,-0.17818 0.755954,0 0.178178,0.17818 -0.178181,0.57777 0,0.75595 0.178178,0.17818 0.530569,-0.11269 0.755952,0 0.458335,0.22917 2.700054,2.781 3.023809,3.02381 1.862299,1.39673 2.167985,0.32804 3.023809,0.75595 0.318738,0.15937 0.437216,0.59659 0.755954,0.75596 0.22538,0.11269 0.530569,-0.11269 0.755952,0 0.637474,0.31873 0.83576,1.28652 1.511903,1.5119 0.478107,0.15937 1.033798,-0.15937 1.511906,0 0.676145,0.22539 0.874429,1.19317 1.511906,1.51191 0.22538,0.11269 0.530569,-0.11269 0.755951,0 0.637474,0.31873 0.918888,1.11656 1.511904,1.5119 0.468823,0.31255 1.043085,0.44341 1.511905,0.75596 0.296508,0.19767 0.437216,0.59658 0.755952,0.75595 0.225383,0.11269 0.530572,-0.11269 0.755954,0 0.318736,0.15937 0.459441,0.55828 0.755952,0.75595 0.46882,0.31255 1.043083,0.4434 1.511903,0.75595 0.296511,0.19767 0.437216,0.59659 0.755954,0.75595 0.22538,0.11269 0.530569,-0.11269 0.755952,0 0.318738,0.15937 0.437216,0.59659 0.755952,0.75596 0.225382,0.11269 0.577773,-0.17818 0.755954,0 1.564092,1.56409 -2.390143,-0.0611 0.755951,1.5119 0.225381,0.11269 0.577774,-0.17818 0.755952,0 0.178181,0.17818 0.251984,0.75595 0,0.75595 -0.251984,0 0,-0.50396 0,-0.75595"
       transform="translate(19.454657,-5.4473043)" />
    <path
       style="fill:#000000;stroke:none;stroke-width:0.26458332px;stroke-linecap:butt;stroke-linejoin:miter;stroke-opacity:1"
       d="m 82.398713,181.58886 c -0.650084,-1e-5 -1.19124,-11.20401 -1.302058,-25.95196 -0.01292,-1.71975 -0.01999,-3.48768 -0.0207,-5.29166 -5.69e-4,-0.0881 -0.0024,-0.17822 -0.0052,-0.27036 -0.02542,-0.85058 -0.121015,-1.81846 0.02326,-2.93985 0.35334,-2.06875 1.382007,-3.4246 1.549153,-4.56058 0.386982,-1.91051 -0.317588,-4.3143 0.105113,-6.78605 0.243538,-1.1461 0.724591,-1.8202 0.818777,-2.29403 0.08264,-0.0788 -0.0859,-0.6134 0.03544,-1.46935 0.245329,-1.2259 0.659615,-2.1848 0.866237,-3.03723 0.0173,0.21558 -0.0891,-0.11701 0.05993,-0.86315 0.33621,-0.85268 0.771784,-1.20104 0.809264,-1.42409 0.121139,-0.2415 0.01955,-0.79068 0.02773,-1.36998 -0.0048,-0.31392 -0.0093,-0.62219 0.0085,-0.95197 0,0 -10e-7,-1e-5 -10e-7,-1e-5 -0.09535,-0.0535 -0.03673,-0.44468 0.31439,-0.98169 0.782082,-0.40018 1.25692,-0.27361 1.38292,-0.13069 -0.153923,-0.0694 -0.309794,0.10547 -0.565708,0.47117 0.06269,0.0275 -0.0334,-0.13324 -0.08964,-0.4002 -0.481566,-1.69021 -0.998822,-2.72719 -0.821495,-2.81815 0.04932,-0.0253 0.9703,0.64095 1.858259,2.40569 0.102106,0.13645 0.264347,0.42691 0.280335,0.93071 -0.271084,0.52538 -0.618682,0.75782 -0.935683,0.65216 -0.460253,0.0508 -0.423272,-0.12252 -0.128984,-0.13069 0.103323,-0.2655 0.263716,-0.33124 0.158063,0.001 0,0 -10e-7,10e-6 -10e-7,10e-6 0.01825,0.26137 0.05597,0.52455 0.09603,0.84212 0.07687,0.40788 0.24007,1.07269 0.09654,1.90063 -0.225394,0.82844 -0.666528,1.33544 -0.702644,1.59973 -0.0098,-0.29268 0.141456,-0.0523 0.05993,0.64875 -0.179224,1.07681 -0.531591,2.07989 -0.645665,3.01039 -0.04153,0.1213 0.155174,0.62132 0.03544,1.55445 -0.210374,1.04897 -0.66708,1.77028 -0.693127,2.24169 -0.281963,1.75625 0.504489,4.01346 0.105114,6.82109 -0.344631,1.93469 -1.364894,3.33789 -1.47466,4.51086 -0.112831,0.67791 -0.0035,1.49514 0.01559,2.50359 0.0021,0.10959 0.003,0.22085 0.0025,0.33382 -7.1e-4,1.80398 -0.0078,3.57191 -0.0207,5.29166 -0.110818,14.74795 -0.651922,25.95197 -1.302248,25.95196 z"
       id="path38"
       inkscape:connector-curvature="0"
       inkscape:path-effect="#path-effect40"
       inkscape:original-d="m 82.398713,181.58886 c 1.69e-4,-8.65066 9.5e-5,-17.3013 9.5e-5,-25.95196 0,-1.76389 0,-3.52777 0,-5.29166 0,-1.00794 -0.142544,-2.02601 0,-3.02381 0.225383,-1.57767 1.249905,-2.96371 1.511906,-4.53572 0.341961,-2.05176 -0.341961,-4.7518 0,-6.80357 0.131,-0.786 0.599678,-1.48649 0.755952,-2.26786 0.09883,-0.49418 -0.08285,-1.01479 0,-1.5119 0.170804,-1.02482 0.552196,-2.00503 0.755951,-3.02381 0.04942,-0.24709 -0.07968,-0.5169 0,-0.75595 0.178181,-0.53454 0.619295,-0.96528 0.755954,-1.51191 0.140277,-0.56111 -0.232036,-2.79177 0,-3.02381 0.434198,-0.43419 1.32969,0.68618 0.755952,-0.75595 -0.361717,-0.9092 -0.893252,-1.74128 -1.339876,-2.61192"
       transform="translate(19.454657,-5.4473043)" />
    <path
       style="fill:#000000;stroke:none;stroke-width:0.26458332px;stroke-linecap:butt;stroke-linejoin:miter;stroke-opacity:1"
       d="m 127.56713,81.910488 c 0.11335,-0.03907 1.41373,1.528847 2.49339,4.725638 0.19419,0.768852 0.10208,1.299083 0.12221,1.721017 0.0771,1.353644 0.14523,2.87643 0.2027,4.535712 0.11501,3.320383 0.18722,7.187345 0.20237,11.339285 0.002,0.54203 0.003,1.08892 0.003,1.64008 0,3.74296 -0.0463,7.28878 -0.12902,10.45516 -0.0226,0.89881 -0.0897,1.8742 -0.1283,2.65127 -0.0283,0.58377 -0.0541,1.11602 -0.0705,1.65311 0.008,0.40496 -0.0464,0.64852 -0.0192,0.74333 0,0 0,0 0,0 -0.0345,0.20476 0.3965,0.67383 0.65175,1.4653 0.15613,0.64863 0.0894,1.1364 0.0326,1.43164 -0.0433,0.43976 -0.10732,0.80676 -0.13407,1.12678 0,0 0,0 0,0 -0.21697,2.85456 -0.48292,4.53571 -0.77015,4.53571 -0.28723,0 -0.55318,-1.68115 -0.77015,-4.53571 0,0 0,0 0,0 -0.0267,-0.41605 -0.0161,-0.82223 -0.0274,-1.19375 -0.0303,-0.40415 0.007,-0.71447 -0.0741,-0.78355 -0.0861,-0.23247 -0.5391,-0.61702 -0.86015,-1.55849 0,-1e-5 0,-1e-5 0,-1e-5 -0.12871,-0.52911 -0.12646,-0.93908 -0.1271,-1.20516 -0.0299,-0.56262 -0.046,-1.12319 -0.0586,-1.70892 -0.0184,-0.86467 -0.009,-1.74387 -0.0324,-2.62155 -0.0827,-3.16638 -0.12902,-6.7122 -0.12902,-10.45516 0,-0.55116 0.001,-1.09805 0.003,-1.64008 0.0152,-4.15194 0.0874,-8.018902 0.20237,-11.339285 0.0575,-1.659282 0.12563,-3.182068 0.2027,-4.535712 0.0176,-0.696942 0.18504,-1.095196 0.12221,-1.302795 -0.58279,-3.138402 -1.3865,-4.978971 -0.90807,-5.14386 z"
       id="path42"
       inkscape:connector-curvature="0"
       inkscape:path-effect="#path-effect44"
       inkscape:original-d="m 127.56713,81.910488 c 0.56691,1.644917 1.25691,3.252441 1.70073,4.934749 0.12855,0.487296 0,1.007935 0,1.511906 0,1.511903 0,3.023809 0,4.535712 0,3.779763 0,7.559525 0,11.339285 0,4.03175 0,8.06349 0,12.09524 0,0.48646 -0.1279,4.78008 0,5.29167 0.13665,0.54663 0.57777,0.97736 0.75595,1.5119 0.14217,0.42651 0,1.77112 0,2.26786 0,1.5119 0,3.02381 0,4.53571"
       transform="translate(19.454657,-5.4473043)" />
    <path
       style="fill:#000000;stroke:none;stroke-width:0.26458332px;stroke-linecap:butt;stroke-linejoin:miter;stroke-opacity:1"
       d="m 129.25376,125.39881 c -0.18564,-0.078 -0.87065,6.14796 -5.1295,14.83582 0,0 0,0 0,0 -0.45166,0.7266 -1.03564,1.12967 -1.5195,1.30339 -0.4521,0.24238 -0.81247,0.35602 -0.88509,0.50307 0.25615,-0.66824 0.39904,-0.87883 0.27244,-0.70352 0.16338,0.0422 0.16392,0.50936 -0.15834,1.3532 0,0 -1e-5,2e-5 -1e-5,2e-5 -1.19267,1.6061 -2.84411,2.59243 -3.70478,3.836 -0.13596,0.12354 -0.2129,0.68623 -0.6981,1.47079 -0.50305,0.6601 -0.86592,0.83201 -0.74474,0.76343 -0.13189,0.16715 -0.23676,0.76837 -0.78008,1.57924 -1.28522,1.69538 -3.00452,2.57816 -3.70227,3.748 0.16138,-1.25985 0.4575,-0.9159 -0.0377,0.81755 -0.80408,1.04724 -1.68581,1.72708 -2.37867,2.4173 -1.05122,1.05808 -2.12014,2.13053 -3.20407,3.21446 -4.3e-4,4.3e-4 -0.57024,0.56991 -0.57067,0.57034 -0.43716,0.4353 -0.86283,0.80457 -1.23372,1.15466 -0.22623,0.21437 -0.43876,0.41755 -0.63108,0.61891 -0.16232,0.20564 -0.24272,0.24155 -0.16022,0.14806 0,0 0,-1e-5 0,-1e-5 0.0903,-0.60097 0.17274,-0.76552 0.11928,-0.52741 0,0 0,0 0,0 0.21667,0.11809 0.13365,0.68952 -0.36777,1.62395 -0.11415,0.15274 -0.3875,0.38345 -0.85006,0.62412 0,0 -2e-5,1e-5 -2e-5,1e-5 -0.31502,0.27641 -0.91254,0.17918 -1.72587,-0.33693 0,0 -3e-5,-2e-5 -3e-5,-2e-5 -0.50404,-0.92753 -0.57149,-1.45554 -0.41466,-1.47843 -0.008,-0.15119 0.008,-0.13484 0.0188,0.0392 0.73128,0.74361 1.43059,0.9639 2.14867,0.66343 0.0833,-0.1244 0.0916,-0.0893 -0.0253,0.0785 0,0 -10e-6,10e-6 -10e-6,10e-6 -0.14297,0.25242 -0.28292,0.52859 -0.43009,0.81791 0.10334,-1.01716 0.33844,-0.67159 -0.0851,0.89304 -0.70893,0.95123 -1.40469,1.30236 -1.56584,1.56128 -0.13518,0.0946 -0.23464,0.67219 -0.7273,1.44568 -0.588941,0.76291 -0.953405,0.84165 -0.686607,0.61521 0,0 2e-6,-2e-5 2e-6,-2e-5 0.08214,-0.5665 0.161993,-0.71634 0.111765,-0.48257 0,0 5e-6,0 5e-6,0 0.206723,0.11867 0.127494,0.66981 -0.352675,1.55859 -1.080291,0.84646 -1.765948,0.77477 -1.526178,0.74167 0.294638,-0.70243 0.430398,-0.943 0.28963,-0.81636 0,0 3e-6,0 3e-6,0 0.113918,0.0326 0.131912,0.46481 -0.0691,1.24921 -0.820262,1.27027 -1.669637,1.45296 -1.539653,1.49803 0.07342,-0.52781 0.150991,-0.66216 0.104699,-0.43315 0.196188,0.11921 0.121818,0.64794 -0.335353,1.48822 -0.973149,0.47164 -1.516042,0.50796 -1.550342,0.28503 0,0 -5e-6,0 -5e-6,0 -0.218091,0.1421 0.01779,-0.0136 0.785063,-0.29437 0.175528,-0.6523 0.390033,-0.7756 0.274721,-0.40102 0,0 2e-6,0 2e-6,0 0.255962,0.16655 0.256723,0.87232 -0.294853,1.89279 0,0 -2e-5,10e-6 -2e-5,10e-6 -0.942654,0.45814 -1.470767,0.49011 -1.508273,0.27368 -0.214738,0.13511 0.0074,-0.0177 0.741512,-0.28452 0.259441,-0.63223 0.384054,-0.83601 0.258228,-0.70944 0.0709,0.0904 0.05584,0.54468 -0.166475,1.31133 -0.319779,0.32235 -0.639578,0.64186 -0.974205,0.95836 0,0 -1e-5,0 -1e-5,0 -0.30234,-0.21079 -0.612682,-0.41155 -0.932476,-0.60463 -0.05518,-0.0433 -0.110515,-0.0864 -0.166514,-0.12999 -0.02035,-0.0158 -0.03966,-0.0278 -0.06108,-0.0496 -0.01599,-0.0253 -0.02246,-0.0482 -0.0328,-0.0717 -0.01353,-0.0312 -0.05821,-0.13492 -0.07174,-0.16609 0,0 -4e-6,-1e-5 -4e-6,-1e-5 -0.07661,-0.17744 -0.152184,-0.35107 -0.227485,-0.52169 -2e-6,0 -3e-6,0 -4e-6,-1e-5 l 0,0 c 0.08565,-0.091 0.284821,-0.22061 0.605439,-0.35337 0.0829,-0.12763 0.422822,-0.105 1.000971,0.0914 0.509997,0.54901 0.680342,0.91392 0.540212,1.0629 -0.08732,0.60947 -0.271186,0.97062 -0.394492,1.1228 -0.456853,0.76737 -1.032582,1.19743 -1.462818,1.4638 -0.451,0.36028 -0.808707,0.54437 -0.884685,0.76423 -0.01872,-0.25888 0.0937,-0.21826 0.0932,0.13749 0,0 10e-7,0 10e-7,0 0.188698,0.24841 0.153152,0.84659 -0.305192,1.58363 -0.671254,0.36863 -1.096772,0.40192 -1.21373,0.24394 -0.222438,0.0215 -0.113951,-0.061 0.21388,-0.1013 -0.03635,-0.077 -0.170503,0.21919 -0.559593,0.56577 -0.268517,0.24853 -0.530801,0.49048 -0.786441,0.72548 -0.27046,0.24862 -0.533663,0.48961 -0.789245,0.72265 -0.377188,0.37499 -0.665206,0.46172 -0.665188,0.54178 -0.003,-0.2278 0.08117,-0.22598 0.06545,0.0625 0,0 10e-7,0 10e-7,0 0.01363,0.0363 0.03699,0.16332 0.04078,0.3751 0,0 -1.3e-5,2e-5 -1.3e-5,2e-5 -0.298538,0.49469 -0.668531,0.6743 -1.058033,0.54991 -2.838894,-2.04566 -3.673571,-3.95748 -3.73063,-3.88815 0.146504,-0.17802 1.632796,1.28301 4.41451,2.81519 -0.326289,-0.084 -0.613827,0.0726 -0.910438,0.49134 0,0 -1.2e-5,2e-5 -1.2e-5,2e-5 0.0071,0.0663 -0.01262,0.0565 -0.03197,-0.0517 0,0 -10e-7,0 -10e-7,0 -0.08868,-0.0707 -0.16469,-0.39122 -0.0094,-0.9641 0.321218,-0.55928 0.681442,-0.80241 0.846716,-0.97012 0.233078,-0.25564 0.474006,-0.51876 0.722657,-0.78925 0.235068,-0.25572 0.476896,-0.51786 0.72547,-0.78644 0.100217,-0.14021 0.340911,-0.54665 0.952308,-0.94613 0.587916,-0.16266 0.94357,-0.1413 1.005235,-0.0522 0.12532,-0.0948 -0.0018,0.006 -0.493181,0.19482 -0.09339,0.33963 -0.274856,0.43685 -0.206957,0.14253 0,0 1e-6,0 1e-6,0 -0.134473,-0.18077 -0.229225,-0.67457 -0.005,-1.44521 0.400259,-0.73387 0.938738,-1.19241 1.383175,-1.50363 0.405478,-0.36069 0.772981,-0.59578 0.805036,-0.80406 0.102545,-0.3002 0.203516,-0.40242 0.142275,-0.30744 -0.136094,0.0688 0.02596,0.33757 0.467048,0.84491 0.516185,0.15894 0.775766,0.2006 0.790193,0.0972 0.108676,-0.0577 0.130904,-0.0463 0.04131,0.006 l 0,0 c -2e-6,-1e-5 -5e-6,-1e-5 -8e-6,-1e-5 -0.150131,-0.10912 -0.298931,-0.21905 -0.445698,-0.32926 0,0 -8e-6,-1e-5 -8e-6,-1e-5 -0.04542,-0.0341 -0.0907,-0.0683 -0.135324,-0.10207 -0.01866,-0.0144 -0.04119,-0.0293 -0.05447,-0.0422 -0.0085,-0.0175 -0.01935,-0.0451 -0.02917,-0.0689 -0.054,-0.13106 -0.02822,-0.0684 -0.08222,-0.19947 -0.198922,-0.29705 -0.392104,-0.60667 -0.577373,-0.92691 0,0 -6e-6,-10e-6 -6e-6,-10e-6 0.224728,-0.20639 0.446497,-0.42533 0.681166,-0.65742 -0.101619,0.52432 -0.217435,0.69367 -0.215591,0.51996 -0.189008,-0.11726 -0.13166,-0.61781 0.307344,-1.42999 0.920605,-0.45339 1.458048,-0.49835 1.497466,-0.28452 0.214674,-0.13899 0.0022,0.004 -0.752323,0.27368 0,0 -1.6e-5,1e-5 -1.6e-5,1e-5 -0.231883,0.8376 -0.338961,0.53631 -0.294851,0.3809 0,0 10e-7,-1e-5 10e-7,-1e-5 -0.259365,-0.16016 -0.286821,-0.85045 0.27472,-1.91292 0.953906,-0.46744 1.505089,-0.51511 1.541008,-0.29438 0,0 10e-7,1e-5 10e-7,1e-5 0.219033,-0.14608 -0.01041,0.002 -0.794389,0.28503 -0.279257,0.66266 -0.417537,0.89328 -0.286236,0.76767 -0.113846,-0.0347 -0.139518,-0.451 0.05558,-1.22452 0.7657,-1.22635 1.649261,-1.48574 1.484159,-1.52577 -0.08102,0.547 -0.162476,0.68379 -0.118216,0.45786 0,0 10e-7,0 10e-7,0 -0.204283,-0.11733 -0.135131,-0.65501 0.33875,-1.53691 1.038355,-0.83169 1.762816,-0.8016 1.497628,-0.77025 -0.302051,0.71087 -0.445601,0.96412 -0.303556,0.83806 0,0 3e-6,-1e-5 3e-6,-1e-5 -0.118068,-0.0292 -0.140942,-0.46297 0.06265,-1.27393 0,0 5e-6,-2e-5 5e-6,-2e-5 0.586335,-0.8655 1.013337,-1.05824 0.825295,-0.89669 0.128727,-0.15859 0.236276,-0.76136 0.784608,-1.57812 0.688483,-0.87395 1.366154,-1.21266 1.457974,-1.46254 -0.13239,1.13334 -0.422266,0.86582 -0.0851,-0.61886 0.14395,-0.29294 0.29856,-0.60451 0.47478,-0.92529 0,0 0,0 0,0 0.0209,-0.0792 0.14905,-0.30087 0.42956,-0.62917 0.77342,-0.35748 1.55807,-0.12628 2.30333,0.69552 0.0388,0.33242 0.0366,0.50573 0.0229,0.51552 0.14903,0.36758 -0.0151,0.25659 -0.2592,-0.37678 0,0 -3e-5,-2e-5 -3e-5,-2e-5 -0.70453,-0.39617 -1.10863,-0.51399 -1.27514,-0.30301 0,0 -1e-5,1e-5 -1e-5,1e-5 -0.11999,0.0921 -0.10103,0.0323 0.049,-0.0809 -0.32309,0.75621 -0.47086,1.02991 -0.31866,0.9034 0,0 0,0 0,0 -0.1216,-0.0241 -0.14136,-0.47448 0.0702,-1.31875 0,0 0,-2e-5 0,-2e-5 0.26221,-0.45378 0.49024,-0.7025 0.60689,-0.78938 0.244,-0.25659 0.4872,-0.49227 0.72259,-0.71584 0.42559,-0.40554 0.83454,-0.76033 1.18122,-1.10887 -4e-4,4e-4 0.57074,-0.57106 0.57034,-0.57067 1.08392,-1.08391 2.15639,-2.15287 3.21444,-3.20407 0.85323,-0.85582 1.67943,-1.45711 2.15705,-2.1184 -0.17377,1.3012 -0.49731,1.01136 -0.0377,-0.69435 1.33386,-1.87761 3.05606,-2.72502 3.85725,-3.81154 0.14117,-0.10179 0.24324,-0.68101 0.73182,-1.44456 0.52086,-0.66808 0.87588,-0.81708 0.76718,-0.74847 0.14861,-0.16618 0.27972,-0.78318 0.8138,-1.55303 1.37538,-1.73785 3.0029,-2.6036 3.85474,-3.72352 0,0 -1e-5,1e-5 -1e-5,1e-5 -0.16106,0.62888 -0.26784,0.79333 -0.17858,0.5797 -0.19949,-0.0743 -0.14568,-0.59149 0.29268,-1.44191 0.59702,-0.52163 1.16583,-0.74986 1.54883,-0.88684 0.35682,-0.20759 0.62017,-0.26624 0.5823,-0.33052 0,0 0,0 0,0 4.53793,-8.13145 6.55912,-14.04933 6.93754,-13.89036 z"
       id="path46"
       inkscape:connector-curvature="0"
       inkscape:path-effect="#path-effect48"
       inkscape:original-d="m 129.25376,125.39881 c -2.01118,4.7877 -3.62716,9.76132 -6.03352,14.36309 -0.42101,0.80511 -1.62543,0.86947 -2.26786,1.51191 -0.17818,0.17818 0.15119,0.55436 0,0.75595 -1.06908,1.42544 -2.71069,2.35432 -3.77976,3.77976 -0.33807,0.45076 -0.44341,1.04308 -0.75595,1.51191 -0.19768,0.2965 -0.55828,0.45944 -0.75596,0.75595 -0.31255,0.46882 -0.41788,1.06114 -0.75595,1.5119 -0.9815,1.30868 -2.88534,2.43813 -3.77976,3.77977 -0.13978,0.20966 0.15119,0.55436 0,0.75595 -0.64145,0.85526 -1.51191,1.5119 -2.26786,2.26785 -1.25992,1.25993 -2.51984,2.51985 -3.77976,3.77977 -0.39798,0.39798 -2.06599,1.86411 -2.26786,2.26786 -0.11269,0.22538 0.17818,0.57777 0,0.75595 -1.56409,1.56409 0.0611,-2.39014 -1.5119,0.75595 -0.11269,0.22538 0.13977,0.54629 0,0.75595 -0.39535,0.59302 -1.08428,0.94173 -1.511906,1.51191 -0.338074,0.45076 -0.443405,1.04308 -0.755954,1.5119 -0.197671,0.29651 -0.596583,0.43722 -0.755952,0.75595 -0.112691,0.22538 0.178181,0.57778 0,0.75595 -0.398423,0.39843 -1.113483,0.35754 -1.511903,0.75596 -0.178181,0.17818 0.112688,0.53057 0,0.75595 -0.318739,0.63747 -1.193168,0.87443 -1.511906,1.5119 -0.112692,0.22539 0.178181,0.57778 0,0.75596 -0.178181,0.17818 -0.577773,-0.17818 -0.755952,0 -0.356359,0.35636 0.35636,1.15554 0,1.5119 -0.178181,0.17818 -0.577773,-0.17818 -0.755954,0 -0.178178,0.17818 0.112691,0.53057 0,0.75596 -2.507178,2.50717 0.356359,-0.71273 -0.755952,1.5119 -0.45357,0.90714 -1.814285,1.36071 -2.267857,2.26786 -0.22538,0.45076 0.356359,1.15554 0,1.5119 -0.178179,0.17818 -0.530569,-0.11269 -0.755952,0 -0.318738,0.15937 -0.503968,0.50397 -0.755951,0.75595 -0.251984,0.25199 -0.503968,0.50397 -0.755955,0.75596 -0.251984,0.25198 -0.503967,0.50396 -0.755951,0.75595 -0.251984,0.25198 -0.596583,0.43721 -0.755952,0.75595 -0.112691,0.22538 0.212492,0.89139 0,0.75595 -1.482601,-0.94496 -2.715043,-2.23445 -4.072567,-3.35167"
       transform="translate(19.454657,-5.4473043)" />
    <path
       style="fill:#000000;stroke:none;stroke-width:0.26458332px;stroke-linecap:butt;stroke-linejoin:miter;stroke-opacity:1"
       d="m 25.702381,46.02381 c -0.569762,0 -1.055769,-2.518902 -1.241871,-6.047621 -0.08827,-1.079772 0.277028,-1.787717 0.06403,-1.678934 0.417042,0.357827 0.275029,0.38702 0.147746,0.274845 -0.01175,2.86e-4 -0.02425,1.13e-4 -0.03747,-5.43e-4 -0.251306,-0.01246 -0.750039,-0.197599 -1.375922,-0.687598 -0.650348,-0.630692 -1.251918,-1.419604 -1.617462,-2.415988 l 0,0 C 21.410598,34.750308 21.265643,34.239692 21.021102,33.77363 l 0,0 0,-10e-7 0,10e-7 c 0.115309,0.0065 -0.274066,-0.254111 -0.651009,-0.825912 l 0,0 C 20.108649,32.41719 19.893205,31.957031 19.766671,31.431831 l 0,0 -2e-6,2e-6 c -0.542395,0.399355 -0.24843,-0.0892 0.353287,-0.618388 l 1e-6,-1e-6 c 0.0124,0.0056 0.02736,0.0239 0.03605,0.02155 0,0 0,0 0,0 0.0038,-0.001 -0.0043,-0.0042 -0.0081,-0.0056 0,0 0,0 0,0 -0.01321,-0.0049 -0.0282,-0.0088 -0.04206,-0.01297 -0.471739,-0.141162 -0.616321,-0.502335 -0.451061,-0.667596 0.158457,-0.158457 0.536098,-0.02554 0.968997,0.731262 0.01278,0.02235 0.02616,0.04552 0.03785,0.07008 0,0 0,0 0,0 0.0034,0.0071 0.01096,0.01609 0.0067,0.02292 0,0 0,1e-6 0,1e-6 -0.0099,0.01569 -0.02607,0.01108 -0.03983,0.01945 l 0,0 c 0.424487,-0.485896 0.870003,-0.737016 0.408627,-0.129142 l -10e-7,1e-6 -1e-6,1e-6 c 0.222224,0.27174 0.539503,0.571121 0.926169,1.022244 l 0,0 c 0.0084,0.02248 0.300754,0.01956 0.860896,0.685989 l 0,0 1e-6,10e-7 0,0 c 0.485912,0.632554 0.829742,1.311477 1.136743,2.022033 l 0,0 c 0.178685,0.446977 0.607353,0.853588 1.161177,1.42716 -0.269102,-0.111063 -0.111325,-0.144131 0.157777,-0.03307 0.01626,0.0067 0.03312,0.01394 0.05057,0.02172 0.360916,-0.02757 0.949384,0.31066 1.549823,1.109959 0.492671,1.508793 0.141215,2.527525 0.06403,2.856776 -0.186102,3.528719 -0.672109,6.047621 -1.241871,6.047621 z"
       id="path50"
       inkscape:connector-curvature="0"
       inkscape:path-effect="#path-effect52"
       inkscape:original-d="m 25.702381,46.02381 c 0,-2.015874 0,-4.031747 0,-6.047621 0,-0.755952 0.338072,-1.591712 0,-2.267855 -0.251985,-0.50397 -1.113483,-0.357531 -1.511905,-0.755954 -1.874095,-1.874094 -1.074805,-1.990183 -2.267857,-3.779761 -0.197673,-0.29651 -0.55828,-0.459443 -0.755953,-0.755951 -1.830642,-2.745965 0.22137,-0.534586 -1.511904,-2.267858"
       transform="translate(19.454657,-5.4473043)" />
    <path
       style="fill:#000000;stroke:none;stroke-width:0.26458332px;stroke-linecap:butt;stroke-linejoin:miter;stroke-opacity:1"
       d="m 79.374999,41.488095 c -0.315426,-0.09012 -0.291797,-1.47067 0.09217,-3.655085 0,0 0,-1e-6 0,-1e-6 0.190233,-1.103755 0.496565,-2.765738 1.052865,-4.353567 0.278733,-0.734761 0.632958,-1.200892 0.67309,-1.464666 0.24684,-0.808157 0.36493,-1.821361 0.690814,-2.985011 0.05487,-0.194094 0.112203,-0.388122 0.171934,-0.582156 0.638099,-2.07283 1.508295,-4.000368 2.276249,-5.569727 0.175116,-0.427029 0.422746,-1.106899 1.078461,-1.812534 1.128617,-0.442101 1.38398,-0.179309 1.064557,0.02469 0.172588,-0.504502 0.353292,-0.781516 0.396068,-1.041697 0.170641,0.09164 -0.04886,-0.702352 0.206104,-1.443204 0,0 10e-7,-1e-6 10e-7,-1e-6 0.57245,-1.095786 1.272681,-1.355735 1.369113,-1.307519 0.209913,0.104956 -0.07558,0.847464 -0.14279,1.716296 0,0 0,0 0,0 -0.0217,0.08914 0.402194,0.388776 0.206104,1.580604 -0.302373,0.766057 -0.711652,1.345745 -1.115836,1.982113 -0.90484,0.237822 -1.113274,0.06817 -0.447347,0.02469 -0.128404,0.08005 -0.129021,0.518185 -0.433447,1.211276 -0.578194,1.563288 -1.367339,3.57973 -1.929134,5.411816 -0.05459,0.178028 -0.107406,0.355133 -0.158397,0.531536 -0.266122,0.908383 -0.437845,1.98051 -0.82109,3.062614 -0.327734,0.83983 -0.712068,1.280207 -0.838814,1.55914 -0.64563,1.406306 -1.104217,2.807823 -1.57135,3.952179 0,0 0,0 0,0 -0.832144,2.034968 -1.467784,3.258656 -1.819327,3.158216 z"
       id="path54"
       inkscape:connector-curvature="0"
       inkscape:path-effect="#path-effect56"
       inkscape:original-d="m 79.374999,41.488095 c 0.192889,-0.675116 1.599824,-5.889445 2.267857,-7.559524 0.209262,-0.523153 0.577774,-0.977366 0.755952,-1.511903 0.328546,-0.985642 0.47053,-2.02483 0.755952,-3.023812 0.525523,-1.839331 1.583174,-4.450022 2.267857,-6.047618 0.221957,-0.517896 0.357532,-1.113483 0.755954,-1.511905 0.178179,-0.17818 0.503968,0 0.755952,0 0.251984,-0.503968 0.577773,-0.977366 0.755952,-1.511905 0.159369,-0.478106 -0.159369,-1.033798 0,-1.511904 0.178181,-0.534539 0.503967,-1.007937 0.755951,-1.511905"
       transform="translate(19.454657,-5.4473043)" />
    <path
       style="fill:#000000;stroke:none;stroke-width:0.26458332px;stroke-linecap:butt;stroke-linejoin:miter;stroke-opacity:1"
       d="m 127.75595,47.535713 c -0.0693,-0.346327 1.57059,-0.708175 3.49151,-1.620697 l 0,0 c -0.16908,0.220285 -0.11228,-0.178623 0.3312,-0.604223 h 0 c 0.42065,-0.493188 0.83095,-0.951388 1.30584,-1.485317 l 0,0 c 0.21921,-0.04832 0.25223,0.275391 0.0341,0.959408 l 0,0 c 0,0 -1e-5,-2.3e-5 -1e-5,-2.3e-5 -0.0977,-0.251667 -0.20152,-0.452034 -0.2725,-0.622616 0,0 0,-1.6e-5 0,-1.6e-5 -0.26502,-0.636947 -0.1977,-0.75794 0.12645,-0.299622 l 0,0 c 0.1305,-0.259188 0.25185,-0.443939 0.33711,-0.565961 l 0,0 c 0.60294,-0.9136 1.25372,-1.73811 1.97039,-2.634725 l 0,0 c 0.32381,-0.406114 0.67139,-0.836452 1.04249,-1.264136 l 0,0 c 0.43822,0.09566 0.97864,0.08998 1.67546,0.03221 0,0 0,-1e-6 0,-1e-6 l 0,0 c 0.0742,0.0522 0.157,0.08867 0.23327,0.164925 0,0 1e-5,4e-6 1e-5,4e-6 0.0664,0.06643 0.10492,0.14494 0.15039,0.213639 0,0 0,3e-6 0,3e-6 0.19575,0.295711 0.39032,0.533073 0.61073,0.718514 l 0,0 c -0.16331,0.08192 -0.42451,-0.255733 -0.69788,-1.036076 l 0,0 c -0.20067,0.0029 -0.35774,-0.0072 -0.49103,-0.03572 -0.0938,-0.02005 -0.17615,-0.04435 -0.24687,-0.07167 -0.13104,-0.05061 -0.22197,-0.111464 -0.27242,-0.174506 0.54481,-0.261518 1.1225,-0.988466 1.85266,-1.659177 0.35918,-0.241841 0.65159,-1.262965 1.57179,-2.207975 0.85624,-0.68076 1.5854,-0.821168 1.86426,-0.90572 0.54769,-0.234608 1.07048,-0.452191 1.56429,-0.651165 0.96659,-0.376708 1.92229,-0.89413 2.76132,-1.128045 1.63762,-0.408654 2.22413,0.584618 2.22413,0.515596 0,0.247001 -1.1662,0.170331 -1.68477,0.724535 -0.60211,0.392873 -1.29305,1.026156 -2.40122,1.686822 -0.45543,0.27564 -0.94322,0.563365 -1.45951,0.860746 -0.66478,0.392908 -1.20314,0.469837 -1.15956,0.606181 -0.30909,0.284298 -0.46499,1.223365 -1.45201,2.327741 -0.54134,0.600377 -1.26892,1.474518 -2.39635,2.143184 -0.11644,-0.02641 -0.2755,-0.04939 -0.47822,-0.07695 -0.10946,-0.01488 -0.23121,-0.03105 -0.36584,-0.04982 -0.19117,-0.02665 -0.40726,-0.06825 -0.62812,-0.119499 l 0,0 c -0.33544,-0.946723 -0.51381,-1.46817 -0.62351,-1.554583 l 0,0 c 0.28002,-5.62e-4 0.55305,0.05673 0.79218,0.163049 0,0 0,1e-6 0,1e-6 0.0555,0.02469 0.11613,0.04516 0.14718,0.08367 0,0 0,2e-6 0,2e-6 0.0357,0.04422 0.0628,0.136186 0.0959,0.21965 l 0,0 c 0,0 0,2e-6 0,2e-6 0.35317,0.202682 0.62811,0.54042 0.78369,0.954348 l 0,0 c -0.34145,0.377293 -0.69123,0.783907 -1.02962,1.172572 l 0,0 c -0.79138,0.91175 -1.40055,1.573664 -2.03963,2.369632 l 0,0 c -0.10531,0.140888 -0.17579,0.211672 -0.19006,0.234935 l 0,0 c 0.28914,0.523981 0.28451,0.503349 0.079,-0.09043 0,0 0,-1.5e-5 0,-1.5e-5 -0.055,-0.158862 -0.11511,-0.365329 -0.21933,-0.598268 0,0 -1e-5,-2.2e-5 -1e-5,-2.2e-5 l 0,0 c -0.25403,0.789858 -0.33248,1.175503 -0.19127,1.20578 l 0,0 c -0.51563,0.463993 -1.04528,0.917148 -1.49688,1.300948 l 0,0 c -0.0476,0.07506 -0.39201,0.52657 -1.18072,0.907679 l 0,0 c -2.52232,0.578222 -4.04417,0.0104 -4.06801,-0.108793 z"
       id="path58"
       inkscape:connector-curvature="0"
       inkscape:path-effect="#path-effect60"
       inkscape:original-d="m 127.75595,47.535713 c 1.25992,-0.251984 2.56083,-0.349639 3.77976,-0.755952 0.33807,-0.112691 0.50397,-0.503967 0.75596,-0.755951 3.41933,-3.419337 -0.71272,0.85526 3.77976,-4.535715 3.74042,-4.488511 -1.10299,1.858933 3.77976,-3.023809 0.64243,-0.642438 0.86947,-1.625423 1.5119,-2.267858 0.39843,-0.398423 1.00794,-0.503967 1.51191,-0.755951 0.50397,-0.251984 1.00793,-0.503971 1.5119,-0.755955 3.47458,-1.737285 1.89691,-1.511903 4.53572,-1.511903"
       transform="translate(19.454657,-5.4473043)" />
  </g>
</svg>
