<?xml version="1.0" encoding="UTF-8" standalone="no"?>
<!-- Created with Inkscape (http://www.inkscape.org/) -->

<svg
   xmlns:dc="http://purl.org/dc/elements/1.1/"
   xmlns:cc="http://creativecommons.org/ns#"
   xmlns:rdf="http://www.w3.org/1999/02/22-rdf-syntax-ns#"
   xmlns:svg="http://www.w3.org/2000/svg"
   xmlns="http://www.w3.org/2000/svg"
   xmlns:sodipodi="http://sodipodi.sourceforge.net/DTD/sodipodi-0.dtd"
   xmlns:inkscape="http://www.inkscape.org/namespaces/inkscape"
   width="210mm"
   height="297mm"
   viewBox="0 0 210 297"
   version="1.1"
   id="svg192"
   inkscape:version="0.92.4 (5da689c313, 2019-01-14)"
   sodipodi:docname="logo-2.svg">
  <defs
     id="defs186" />
  <sodipodi:namedview
     id="base"
     pagecolor="#ffffff"
     bordercolor="#666666"
     borderopacity="1.0"
     inkscape:pageopacity="0.0"
     inkscape:pageshadow="2"
     inkscape:zoom="0.32"
     inkscape:cx="431.0314"
     inkscape:cy="632.09382"
     inkscape:document-units="mm"
     inkscape:current-layer="layer1"
     showgrid="false"
     showguides="false"
     inkscape:window-width="1920"
     inkscape:window-height="1017"
     inkscape:window-x="-8"
     inkscape:window-y="-8"
     inkscape:window-maximized="1" />
  <metadata
     id="metadata189">
    <rdf:RDF>
      <cc:Work
         rdf:about="">
        <dc:format>image/svg+xml</dc:format>
        <dc:type
           rdf:resource="http://purl.org/dc/dcmitype/StillImage" />
        <dc:title />
      </cc:Work>
    </rdf:RDF>
  </metadata>
  <g
     inkscape:label="Layer 1"
     inkscape:groupmode="layer"
     id="layer1">
    <path
       style="fill:#e6e6e6;stroke-width:0.25218338"
       id="path224"
       d="m 94.810982,101.98383 c -0.04626,3.81955 -0.0407,7.63951 -0.03873,11.45923 0.0048,3.53503 0.0091,7.07008 0.01812,10.6051 0.0079,2.69533 0.0056,5.39066 0.0079,8.086 0.0056,2.28372 0.0044,4.56745 0.0083,6.85118 0.003,1.55222 0.0046,3.10444 0.0057,4.65666 0,0 -5.665007,4.39548 -5.665007,4.39548 v 0 c 0.0011,-1.55515 0.0027,-3.1103 0.0057,-4.66546 0.0039,-2.28803 0.0028,-4.57605 0.0083,-6.86408 0.0024,-2.69944 8e-5,-5.39886 0.0079,-8.0983 0.009,-3.5444 0.01331,-7.08881 0.01812,-10.63324 0.0019,-3.79968 0.0078,-7.59963 -0.03873,-11.39912 0,0 5.662372,-4.39345 5.662372,-4.39345 z"
       inkscape:connector-curvature="0" />
    <path
       style="fill:#e6e6e6;stroke-width:0.24544208"
       id="path226"
       d="m 111.04466,108.36093 c -0.0509,3.12958 -0.0244,6.25954 -0.02,9.38928 0.13344,2.17901 0.54031,4.33493 0.76883,6.50691 0.18756,1.90111 0.62194,3.77269 0.84745,5.67248 0.21783,2.08828 0.25341,4.18663 0.28164,6.28193 0.0263,1.85323 -0.11237,3.70379 0.23741,5.53835 0.11631,0.86575 0.39563,1.7046 0.65288,2.54448 0,0 -5.53245,4.28557 -5.53245,4.28557 v 0 c -0.26691,-0.8527 -0.59133,-1.69814 -0.70547,-2.57961 -0.39899,-1.86543 -0.30922,-3.73545 -0.30412,-5.62755 -0.0142,-2.08246 -0.0351,-4.16745 -0.23114,-6.24433 -0.20724,-1.90376 -0.64622,-3.77332 -0.86528,-5.67037 -0.2006,-2.19751 -0.58328,-4.37732 -0.77207,-6.57559 0.004,-3.11994 0.0311,-6.24009 -0.02,-9.35986 0,0 5.66237,-4.16169 5.66237,-4.16169 z"
       inkscape:connector-curvature="0" />
    <path
       style="fill:#e6e6e6;stroke-width:0.23044258"
       id="path228"
       d="m 104.88778,103.59379 c 2.37738,1.42343 5.13304,2.37531 7.68139,3.59003 2.13336,0.97761 4.14437,2.10456 6.11828,3.25686 1.67325,0.91288 3.35849,1.83458 4.85724,2.91146 1.17435,0.78818 2.54157,1.34208 3.37777,2.37491 0.50496,1.51949 -0.99421,2.62131 -2.27484,3.62596 -2.45402,2.19743 -5.17455,4.01482 -7.99463,5.85313 -0.70374,0.45874 -2.87308,2.10034 -1.64249,1.18167 1.49729,-1.1178 2.99754,-2.23331 4.49631,-3.34995 -0.88724,0.81488 -0.46794,0.3998 -1.26022,1.24387 l -5.93618,3.40912 v 0 c 0.7385,-0.89568 -2.64796,-2.45139 -1.77996,-3.29271 4.70065,-1.54352 6.87801,-2.45292 10.89024,-5.68013 1.16353,-4.85672 -10.17469,-5.68759 -13.97812,-7.46738 -2.55218,-1.22104 -5.28432,-2.21808 -7.726518,-3.57565 z"
       inkscape:connector-curvature="0"
       sodipodi:nodetypes="ccccccccccccccccc" />
    <path
       style="fill:#e6e6e6;stroke-width:0.21834663"
       id="path230"
       d="m 113.38448,125.34351 c 2.25664,0.57062 4.45326,1.24283 6.70561,1.81893 1.83486,0.49412 3.62897,0.95254 5.34257,1.62177 1.83577,0.58235 3.60253,1.21342 4.77057,2.36841 0.63775,1.77631 -1.14637,3.25555 -2.60627,4.60073 -3.3528,2.92676 -7.32815,5.49208 -11.42034,7.93485 -0.91766,0.55245 -1.27372,0.76274 -2.17543,1.32155 -0.34788,0.21558 -1.36974,0.87803 -1.03849,0.65061 1.41454,-0.97114 5.68336,-3.86702 4.28914,-2.88235 -2.085,1.47254 -12.04381,8.15545 -1.53641,1.08971 -0.22316,0.17555 -0.44633,0.3511 -0.66949,0.52664 l -5.98812,3.01333 v 0 c 0.22009,-0.17925 0.44017,-0.35849 0.66025,-0.53775 1.96229,-1.36105 -1.92271,1.38701 0,0 0.1805,-1.95354 -0.36843,-2.74268 1.07099,-3.74452 4.66309,-4.58916 11.97816,-5.8656 12.80589,-8.57455 -0.78438,-1.13149 -1.62175,-1.49232 -3.29361,-2.0822 -1.676,-0.6555 -3.46711,-1.07321 -5.25043,-1.57497 -2.22139,-0.59691 -4.39657,-1.26954 -6.66867,-1.77921 z"
       inkscape:connector-curvature="0"
       sodipodi:nodetypes="ccccccccccccccccccccc" />
    <path
       style="fill:#e6e6e6;stroke-width:0.24544208"
       id="path390"
       d="m 34.821299,131.94337 c -0.08396,5.25572 -0.07315,10.5122 -0.07054,15.76829 0.0047,4.19721 0.03142,8.39435 0.05198,12.59151 -0.04875,2.06897 0.134625,4.14664 -0.06291,6.21074 -0.330226,1.82611 -0.589626,3.65788 -0.735258,5.50169 0,0 -5.692296,4.13035 -5.692296,4.13035 v 0 c 0.126634,-1.85157 0.349723,-3.69536 0.709863,-5.52503 0.348531,-2.04197 0.03907,-4.1313 0.162211,-6.18839 0.02053,-4.22262 0.04725,-8.44523 0.05198,-12.6679 0.0026,-5.22153 0.01408,-10.44347 -0.07054,-15.66461 0,0 5.655498,-4.15665 5.655498,-4.15665 z"
       inkscape:connector-curvature="0" />
    <path
       style="fill:#e6e6e6;stroke-width:0.266168"
       id="path392"
       d="m 33.862953,171.10075 c 2.037642,3.5294 4.867731,6.52537 7.747396,9.41831 4.155104,3.8739 8.179665,7.87313 12.284507,11.79641 4.579945,4.02 9.592746,7.53162 14.301351,11.40763 3.454005,2.71399 6.42049,5.97412 9.883952,8.66823 2.567269,1.86848 4.899373,3.98016 7.176067,6.16832 1.836226,1.98761 4.12858,3.47007 6.194085,5.2062 1.381581,1.32651 2.934048,2.42971 4.492016,3.54008 0.940687,0.69427 3.860996,2.30282 4.967613,2.68671 l -7.049675,4.29544 v 0 c -1.154601,-0.43262 -1.159123,-0.44009 -2.146863,-1.17499 -1.575421,-1.12173 -4.193378,-2.77516 -5.600416,-4.10036 -2.073082,-1.75017 -4.349529,-3.27598 -6.198129,-5.26994 -2.261809,-2.16671 -4.589646,-4.24865 -7.119617,-6.12108 -3.437067,-2.73395 -6.381006,-6.0161 -9.836486,-8.73901 -4.71401,-3.89308 -9.710312,-7.45004 -14.30763,-11.47462 -4.127086,-3.91025 -8.187424,-7.88381 -12.347763,-11.76096 -2.943959,-2.93615 -5.799177,-5.97889 -7.991086,-9.50118 z"
       inkscape:connector-curvature="0"
       sodipodi:nodetypes="cccccccccccccccccccc" />
    <path
       style="fill:#e6e6e6;stroke-width:0.39495462"
       id="path394"
       d="m 105.36316,181.44182 c -0.0897,9.85996 -0.0638,19.72134 -0.0581,29.58202 -0.0921,4.04157 0.50749,19.48312 0.71785,23.50355 l -6.864098,-2.11399 v 0 c -0.20695,-4.07847 -0.42486,-8.16416 -0.305275,-12.26331 0.0058,-9.80586 0.03213,-19.6125 -0.05811,-29.41759 l 6.567783,-9.29068 z"
       inkscape:connector-curvature="0"
       sodipodi:nodetypes="ccccccccc" />
    <path
       style="fill:#e6e6e6;stroke-width:0.25128856"
       id="path396"
       d="m 176.91717,124.25431 c -0.1576,3.25928 -0.47097,6.50155 -0.15211,9.74601 -0.28439,5.88279 -0.09,5.95956 -0.0283,9.1683 0.0396,3.56017 0.50269,6.15885 0.51059,9.71914 0.079,2.59677 0.45799,6.62428 0.69297,9.21521 0.20324,2.01227 0.82623,3.95357 1.26746,5.92713 0.65368,2.45295 0.35784,4.26992 -0.74041,6.5689 -2.03221,3.34455 -5.02122,6.10922 -7.85163,8.90728 -0.58497,0.53501 -1.1594,1.07958 -1.75491,1.60505 -2.30665,2.03537 -4.5887,4.09459 -6.95118,6.07715 -0.58008,0.48679 -1.25248,0.87571 -1.86898,1.32459 -1.65108,1.20217 -3.24481,2.46428 -4.83192,3.73378 -1.28669,0.94345 -1.28238,0.90474 -2.43048,1.87306 -0.36065,0.30418 -1.41776,1.24023 -1.06563,0.92804 8.1238,-7.20235 3.66804,-3.17589 1.97068,-1.40248 -2.69725,2.91105 -5.73541,5.49364 -8.73019,8.17093 -0.44837,0.40084 -0.92142,0.77859 -1.38358,1.16648 -0.48673,0.4085 -1.9247,1.65426 -1.46307,1.22271 1.21003,-1.13122 2.47308,-2.21529 3.70962,-3.32293 -2.99115,3.03194 -6.40186,5.62594 -9.72662,8.32399 -0.43934,0.35653 -1.70882,1.4731 -1.29033,1.09672 5.85185,-5.2631 4.88319,-4.36946 2.94091,-2.53141 -2.77251,2.56738 -5.58878,5.10182 -8.48107,7.55807 -1.04649,0.88871 -2.41609,1.50057 -3.59654,2.23018 -1.77188,0.77609 -3.14421,2.03022 -4.64355,3.13601 11.34711,-9.96392 -1.22347,1.01557 -4.55554,3.83103 -1.69245,1.44324 -3.35028,2.93595 -5.28473,4.1147 -3.98655,2.64668 -4.40262,2.92514 -8.93402,5.9963 -2.5015,-1.52846 -1.98324,-1.23637 -4.903001,-2.59959 -2.952177,-1.2952 -1.63784,-0.67526 -3.481344,-1.75058 l 4.836782,-5.10425 v 0 c 1.091726,0.005 2.183453,0.011 3.275183,0.0163 2.56981,0.009 -0.39864,5.87926 8.23795,0.77595 2.29634,-1.14669 3.82972,-2.95744 5.4401,-3.60731 1.85244,-1.26088 3.51976,-2.26815 5.20268,-3.70596 0.83383,-0.69731 1.67509,-0.93076 2.51869,-1.61839 0.24777,-0.20194 0.97462,-0.82328 0.74171,-0.60743 -2.52813,2.34292 -11.1262,10.03993 1.34265,-1.15415 1.45646,-1.15223 2.99559,-2.19871 4.68444,-3.06345 0.29607,-0.17763 2.04044,-1.22054 2.27094,-1.37499 0.42112,-0.28218 1.57407,-1.24469 1.22437,-0.89196 -7.45155,7.51628 -3.78259,3.23432 -1.8768,1.75653 2.85392,-2.66 5.64664,-5.38125 8.70366,-7.8535 0.48488,-0.39211 0.98228,-0.77154 1.46654,-1.16428 0.50023,-0.40569 1.93388,-1.68422 1.48679,-1.23085 -1.13527,1.1512 -2.37034,2.21907 -3.55551,3.32861 2.19937,-1.98165 4.38558,-3.97523 6.59811,-5.94493 0.47489,-0.42278 0.97809,-0.8189 1.46346,-1.23188 0.45885,-0.39042 1.80655,-1.58824 1.36915,-1.17829 -7.67323,7.1915 -3.10543,2.82118 -1.55498,1.17055 3.65094,-3.82352 7.48513,-7.53433 11.84321,-10.7113 1.5923,-1.25487 3.20205,-2.48416 4.83999,-3.6905 0.60949,-0.4489 2.30282,-1.91146 1.83192,-1.34284 -0.95895,1.15796 -2.24909,2.06076 -3.31812,3.13745 -0.55474,0.55872 1.18253,-1.05471 1.7738,-1.58207 2.81511,-2.76276 5.74181,-5.49689 7.93363,-8.7041 1.19288,-2.20061 1.62978,-3.79975 1.00252,-6.22357 -0.41587,-1.99888 -0.0165,-3.94999 -0.25114,-5.97822 -0.32896,-2.61137 -1.06233,-5.25831 -1.16789,-7.88129 0.0103,-3.5569 -0.5244,-6.30236 -0.74004,-9.45608 -0.22766,-3.32947 -0.26248,-6.80491 -0.5846,-9.99302 -0.30862,-3.24558 -2.28569,-11.13443 -2.19451,-14.39536 l 5.67896,-3.91235 z"
       inkscape:connector-curvature="0"
       sodipodi:nodetypes="cccccccccccccccccccccccccccccccccccccccccsccccccccccccccccccacccc" />
    <path
       style="fill:#e6e6e6;stroke-width:0.24544208"
       id="path442"
       d="m 99.149782,190.51165 c -4.435906,-4.36685 -9.132921,-8.52032 -13.946946,-12.57642 -5.61276,-4.79137 -11.309945,-9.50975 -16.818345,-14.39076 -3.280836,-2.8068 -6.277735,-5.84329 -9.480738,-8.71213 -1.668174,-1.71423 -3.570243,-3.23561 -5.368208,-4.84272 -0.934725,-1.10547 -1.924756,-2.14887 -3.052546,-3.11131 -1.11547,-1.13387 -2.335985,-2.17454 -3.605172,-3.17972 -1.693553,-1.55493 -3.323141,-3.16737 -5.101228,-4.65204 -1.696193,-1.26136 -2.475814,-3.07277 -3.681166,-4.64359 -1.18168,-1.20881 -2.484327,-2.31711 -3.717192,-3.48751 -0.20048,-0.22111 -0.40096,-0.44223 -0.60144,-0.66335 0,0 5.335174,-4.47683 5.335174,-4.47683 v 0 c 0.186709,0.20879 0.373417,0.41757 0.560126,0.62636 1.265917,1.18758 2.584055,2.32872 3.787682,3.56354 1.194901,1.52649 1.936366,3.30237 3.560019,4.55762 1.765287,1.48599 3.401753,3.08204 5.104614,4.62024 1.284232,1.00362 2.507065,2.05213 3.628197,3.19271 1.145106,0.96023 2.156471,1.99696 3.064232,3.13127 1.777392,1.62464 3.663596,3.16155 5.327989,4.87828 3.165086,2.89998 6.129589,5.95964 9.385075,8.78843 5.449168,4.92092 11.118347,9.65737 16.761637,14.41214 4.826608,4.04728 9.498213,8.21781 14.117964,12.43956 0,0 -5.259728,4.52623 -5.259728,4.52623 z"
       inkscape:connector-curvature="0" />
    <path
       style="fill:#e6e6e6;stroke-width:0.27066299"
       id="path444"
       d="m 29.165789,136.10002 c 1.428342,-3.06923 3.29879,-5.95269 5.375662,-8.67187 2.389592,-2.92491 5.042815,-5.63732 7.812793,-8.24621 3.576725,-3.65646 7.1037,-7.35587 10.698388,-10.99919 4.367792,-4.52763 8.511344,-9.235001 12.739445,-13.874728 5.572939,-6.034487 11.711537,-11.57925 17.773674,-17.173377 4.070613,-3.746889 8.415821,-7.215394 12.578236,-10.869638 -8.477663,7.97136 -0.283853,-1.010194 1.50306,-2.948411 l 5.554463,-2.468414 0.0124,-1.530817 c -3.607142,4.00344 -7.820119,9.005964 -11.657237,12.814626 -4.189625,3.60494 -8.468646,7.117856 -12.5424,10.839864 1.078867,-1.039472 2.170046,-2.067863 3.236605,-3.118419 0.673485,-0.663375 -1.373821,1.302387 -2.057261,1.95677 -2.801661,2.682558 -5.57436,5.394246 -8.212947,8.219243 -4.251472,4.61175 -8.347782,9.348701 -12.701201,13.879811 -3.569693,3.64 -7.136375,7.27938 -10.625329,10.98573 -2.775929,2.58924 -5.44684,5.26072 -7.871037,8.1479 -2.112302,2.6364 -3.990956,5.47748 -5.419302,8.49264 z"
       inkscape:connector-curvature="0"
       sodipodi:nodetypes="cccccccccccccccccccc" />
    <path
       style="fill:#e6e6e6;stroke-width:0.23676974"
       id="path448"
       d="m 103.2139,59.317365 c 3.04773,2.910947 6.4891,5.584622 9.90468,8.26303 3.86677,2.957593 7.86403,5.818724 11.73848,8.772834 3.98443,3.219828 7.87579,6.499904 12.08474,9.565286 3.58431,2.471727 6.79217,5.166167 9.67484,8.080297 2.37701,2.566039 4.9288,5.037822 7.39153,7.558528 2.12602,2.02335 4.18463,4.08394 6.31701,6.10363 1.68748,1.6451 3.24315,3.35745 4.87257,5.03231 1.42192,1.25066 2.88297,2.48187 4.33469,3.7164 1.32617,1.06803 2.77854,2.06294 3.89223,3.2587 0.67315,0.77854 0.35277,0.3779 0.95922,1.20273 0,0 -5.67896,3.91235 -5.67896,3.91235 v 0 c -0.55762,-0.7897 -0.25537,-0.40342 -0.90738,-1.15854 -1.05954,-1.19526 -2.52175,-2.15957 -3.82093,-3.21275 -1.46142,-1.25113 -2.92257,-2.5044 -4.36681,-3.76466 -1.62839,-1.66863 -3.15873,-3.38695 -4.82456,-5.0369 -2.13288,-2.02895 -4.21051,-4.08865 -6.33946,-6.11987 -2.42994,-2.53737 -4.96651,-5.0156 -7.35578,-7.574999 -2.86252,-2.886299 -6.00107,-5.588725 -9.54417,-8.048883 -4.2044,-3.074601 -8.12847,-6.336569 -12.10833,-9.565212 -3.87822,-2.954915 -7.88598,-5.812685 -11.7431,-8.780792 -3.42316,-2.686012 -6.85499,-5.368149 -10.047363,-8.204258 0,0 5.566853,-3.999231 5.566853,-3.999231 z"
       inkscape:connector-curvature="0" />
    <path
       style="fill:#e6e6e6;stroke-width:0.27095005"
       id="path450"
       d="m 99.149782,190.51165 c 2.301568,-5.16423 6.379958,-9.55795 10.439048,-13.85097 7.41151,-7.08465 15.58061,-13.59867 23.47109,-20.31552 7.10487,-6.09662 14.00006,-12.36321 20.48633,-18.9139 4.19662,-4.37636 8.98242,-8.27419 13.91256,-12.09278 1.03863,-0.80448 2.25606,-1.43569 3.37497,-2.16314 1.14945,-0.81066 2.39336,-1.5024 3.55011,-2.30423 0,0 -4.99719,5.5547 -4.99719,5.5547 v 0 c -1.17337,0.75797 -2.37952,1.47947 -3.5291,2.26257 -1.10382,0.7126 -4.17323,3.05801 -3.29057,2.15962 1.16759,-1.1884 2.57538,-2.20129 3.85955,-3.30473 0.65475,-0.5626 -1.33308,1.10678 -1.97127,1.6822 -1.10291,0.99448 -3.33489,3.19804 -4.34175,4.18187 -6.49293,6.6193 -13.4869,12.89304 -20.60352,19.05681 -7.84925,6.69367 -15.95631,13.19482 -23.41091,20.19303 -4.00906,4.19116 -8.10557,8.4803 -10.3718,13.54449 0,0 -6.577548,4.30998 -6.577548,4.30998 z"
       inkscape:connector-curvature="0" />
    <path
       style="fill:#e6e6e6;stroke-width:0.24544208"
       id="path454"
       d="M 48.153281,59.451589 C 47.238696,56.730097 46.356832,53.99855 45.517227,51.259198 44.925182,48.777472 44.124407,46.339349 43.397208,43.885962 42.778729,41.964757 42.250517,40.023093 41.55746,38.1203 c -0.449662,-1.499793 -1.237525,-2.892637 -1.822255,-4.352068 -0.269769,-0.837778 -0.584726,-1.663056 -0.84786,-2.502438 0,0 3.89649,-3.01561 3.89649,-3.01561 v 0 c 0.246266,0.835956 0.57119,1.64962 0.816914,2.485399 0.558141,1.473415 1.38406,2.855979 1.818368,4.365048 0.713406,1.910999 1.206452,3.87242 1.836705,5.804145 0.71442,2.457434 1.539783,4.892233 2.104623,7.380545 0.819246,2.734142 1.668767,5.468235 2.674602,8.155838 0,0 -3.881766,3.01043 -3.881766,3.01043 z"
       inkscape:connector-curvature="0" />
    <path
       style="fill:#e6e6e6;stroke-width:0.24544208"
       id="path456"
       d="m 107.94271,31.545292 c 0.036,-2.519776 0.0277,-5.039818 0.0236,-7.559722 -0.006,-1.773036 -0.0158,-3.546058 -0.0214,-5.319093 -0.003,-1.175619 -0.004,-2.351242 -0.004,-3.526863 -0.002,-0.80867 0.002,-1.61733 0.003,-2.425998 0,0 3.98181,-2.9265283 3.98181,-2.9265283 v 0 c 0.001,0.8070153 0.005,1.6140243 0.003,2.4210423 -2e-4,1.17752 -5.2e-4,2.355041 -0.004,3.532558 -0.006,1.783509 -0.0157,3.567003 -0.0214,5.350512 -0.004,2.508367 -0.0128,5.016878 0.0235,7.525115 0,0 -3.98514,2.928977 -3.98514,2.928977 z"
       inkscape:connector-curvature="0" />
    <path
       style="fill:#e6e6e6;stroke-width:0.24544208"
       id="path472"
       d="m 158.99744,61.731071 c 0.32064,-3.08868 1.43576,-5.989144 2.62552,-8.893823 1.41579,-3.557911 3.61001,-6.476417 6.33653,-9.371068 5.65195,-4.87344 3.22542,-3.136672 6.8753,-5.602232 0,0 -3.05437,3.536383 -3.05437,3.536383 v 0 c -2.44421,1.730096 -2.21842,1.660787 0.29728,-0.563547 -0.74992,0.782735 -1.88107,1.931514 -2.5662,2.769315 -1.63609,2.000669 -2.84549,4.214236 -3.8829,6.483931 -1.17638,2.858946 -2.3492,5.698736 -2.60887,8.750386 0,0 -4.02229,2.890655 -4.02229,2.890655 z"
       inkscape:connector-curvature="0" />
    <path
       style="fill:#e6e6e6;stroke-width:0.29535785"
       id="path676"
       d="m 73.391072,216.77662 c -4.442498,0.28062 -8.852863,1.06835 -13.285954,1.53501 -8.020282,0.8514 -16.03238,1.81204 -24.038448,2.88466 -5.410909,0.74381 -10.821562,1.5916 -16.074413,3.56989 -1.912322,0.91068 -4.017664,1.60798 -5.705386,3.20162 -0.14469,0.21598 -0.589631,0.84913 -0.43407,0.64792 1.11526,-1.44253 2.115511,-3.06302 3.314199,-4.37322 0.111797,-0.1222 0.173248,0.31961 0.288764,0.4351 0.271165,0.27109 0.56436,0.50018 0.861214,0.71455 0.905619,0.65396 1.469164,0.88968 2.450494,1.3942 4.159095,2.17377 8.489822,3.59859 12.828013,4.90313 6.861415,1.78246 13.802644,2.87321 20.748224,3.8056 8.22334,1.15397 16.453741,2.19226 24.689591,3.16053 7.093451,0.85302 14.20742,1.28126 21.32463,1.49471 6.71422,0.1503 13.42963,0.1495 20.14455,0.16269 8.40312,0.0458 16.80397,0.0628 25.20403,-0.26814 6.33574,-0.21841 12.67249,-0.50251 18.97092,-1.50905 5.99744,-1.28698 12.05857,-1.80134 18.0458,-3.1728 4.28922,-1.139 8.57066,-2.54938 12.56644,-5.01479 0.73476,-0.54568 1.30282,-0.91953 1.97328,-1.59445 0.25228,-0.25395 0.94293,-1.12859 0.71637,-0.83241 -1.00716,1.31665 -1.92649,2.78721 -3.05908,3.89496 -0.17778,0.17388 0.0639,-0.61431 -0.004,-0.89935 -0.082,-0.34572 -0.2851,-0.61274 -0.42765,-0.9191 -2.5412,-3.01224 -5.96896,-3.89509 -9.13222,-5.00013 -3.75112,-1.3552 -7.52252,-2.61293 -11.33451,-3.60093 -4.25165,-0.89147 -8.52467,-1.56456 -12.78779,-2.33979 -4.57776,-0.79997 -9.18852,-1.14354 -13.79788,-1.35441 -1.9391,-0.0839 -3.87917,-0.0874 -5.81896,-0.0765 -1.47469,3.5e-4 -2.94934,0.016 -4.42402,0.008 -0.29031,-2.7e-4 -7.23074,0.28282 -7.52105,0.28282 l 6.48636,-5.6574 v 0 c 0.29102,-10e-4 3.97715,0.17261 4.26817,0.17261 1.47713,-0.0131 2.9543,-0.009 4.43145,-0.0195 1.92815,0.008 3.85623,0.053 5.78247,0.17775 4.60734,0.30032 9.21531,0.69219 13.79653,1.44821 4.2795,0.75802 8.56821,1.42527 12.83354,2.32749 3.81482,1.00661 7.58711,2.28058 11.34081,3.65158 3.29281,1.14084 6.8298,2.08172 9.46006,5.24181 0.1307,0.25357 1.10063,1.8363 0.80726,2.39938 -1.93338,3.71071 -3.8149,6.19053 -6.6379,8.02042 -4.01951,2.32304 -8.297,3.65515 -12.57163,4.75892 -6.00541,1.31473 -12.07436,1.91925 -18.08584,3.18742 -6.29101,0.93359 -12.61435,1.20229 -18.93823,1.36899 -8.40406,0.28317 -16.80807,0.25376 -25.21434,0.25845 -6.73564,0.0188 -13.47241,0.0823 -20.207292,-0.087 -7.101024,-0.26469 -14.195411,-0.78401 -21.272768,-1.63751 -8.244451,-0.95606 -16.482243,-1.99342 -24.714544,-3.13346 -6.978338,-0.93443 -13.95714,-1.98975 -20.854278,-3.75503 -4.380001,-1.2838 -8.736194,-2.74017 -12.946907,-4.8666 -1.182091,-0.60376 -2.509153,-1.17461 -3.52106,-2.26393 -0.244654,-0.26337 -0.803738,-0.56753 -0.640537,-0.93091 1.490729,-3.31933 2.406787,-4.26343 4.035764,-6.05863 1.793189,-1.37904 3.818668,-2.20999 5.779324,-3.00272 5.246219,-1.8238 10.636785,-2.54604 16.011229,-3.29566 8.024943,-1.03923 16.053499,-2.01274 24.085306,-2.94665 4.486413,-0.52946 8.950493,-1.35974 13.447405,-1.71253 l -3.24177,5.21406 z"
       inkscape:connector-curvature="0"
       sodipodi:nodetypes="cccccsccccccccccccccsccccccccccccccccccccccccccccccccccccccc" />
  </g>
</svg>
